<svg xmlns="http://www.w3.org/2000/svg" xmlns:xlink="http://www.w3.org/1999/xlink" version="1.1" x="0px" y="0px" width="600px" height="160px" viewBox="0 0 600 160" enable-background="new 0 0 600 160" xml:space="preserve"><style>.style0{fill:	#FFFFFF;}</style><g><polygon points="195,43 195,43 188,82 185,101 205,101 201,82" class="style0"/><path d="M0.14 0v22.49h46.83c9.04 3 20 12 20 28.26c0 13.64-4.93 21.52-12.16 25.96v0.66 c7.72 4 15 12 15 26.29c0 17.91-12.65 28.59-20.87 33.85H0.14V160h599.72v-22.49h-21.53l-3.12-62.77h-0.82 l-11.83 46.34h-13.47l-11.83-46.34h-0.82l-3.12 62.77h-21.53l7.39-115.02h20.54l7.07 26.46l8.71 35.99h0.66l8.71-35.99l7.06-26.46 h20.54l7.39 115.02V0H0.14z M150.32 137.51h-23l-13.97-41.9h-8.71v41.9H82.46V22.49h43.71c12.49 4 24 16 24 35 c0 16.43-8.05 26.78-17.42 32.37L150.32 137.51z M211.93 137.51l-3.45-18.24h-25.96l-3.45 18.24h-22.35l22.18-115.02h34.01 l21.03 115.02H211.93z M265.99 137.51h-22.51V22.49h22.51V137.51z M348.31 137.51h-15.28L302.3 73.92l-0.82 0.33l0.99 19.39v43.87 h-20.7V22.49h16.6l30.23 66.06l0.82-0.33L327.6 68V22.49h20.7V137.51z M405.32 137.51h-43.54v-19.06h34.01l0.49-0.99l-29.58-53.07 c-3.78-6.74-6.41-13.31-6.41-18.73c0-7.89 2.96-18.4 14.3-23.17h39.43v19.72h-31.55l-0.49 0.99l26.29 47 c3.94 7 8 15 8 22.02C416.33 125 411 133 405 137.51z M499.3 90.35c0 17.58-0.33 32.7-17.91 47.16h-36.48 C427.5 123 427 107 427 90.35V22.49h22.51v76.08c0 11 2 15 6 19.88h13.8c3.94-4.44 6.74-8.22 6.74-19.88V22.49 h22.51V90.35z" class="style0"/><path d="M119.76 42.21h-15.12v35h14.13c2.79-0.66 9.53-7.07 9.53-17.91C128.3 50 122 43 119 42.21z" class="style0"/><path d="M22.49 118.45h16.92c3.45-2.46 7.72-9.2 7.72-16.27c0-5.75-2.96-11.17-6.9-13.64H22.49V118.45z" class="style0"/><path d="M45.99 55.84c0-7.39-3.62-11.17-6.74-13.64H22.49v27.77h16.27C42.7 67 45 62 45 55.84z" class="style0"/></g></svg>