<?xml version="1.0" encoding="utf-8"?>
<!-- Generator: Adobe Illustrator 16.0.0, SVG Export Plug-In . SVG Version: 6.00 Build 0)  -->
<!DOCTYPE svg PUBLIC "-//W3C//DTD SVG 1.1//EN" "http://www.w3.org/Graphics/SVG/1.1/DTD/svg11.dtd">
<svg version="1.1" id="Layer_1" xmlns="http://www.w3.org/2000/svg" xmlns:xlink="http://www.w3.org/1999/xlink" x="0px" y="0px"
	 width="458.22px" height="83.99px" viewBox="0 0 458.22 83.99" enable-background="new 0 0 458.22 83.99" xml:space="preserve">
<g>
	<g>
		<path fill="#FFE500" d="M0.352,0.472v83.399h67.953V0.472H0.352z M41.439,51.375L19.451,73.367l-8.65-8.645l21.882-21.886
			L10.801,20.954l8.65-8.647l21.988,21.988l-8.541,8.542L41.439,51.375z"/>
	</g>
</g>
<g>
	<g>
		<path fill="#FFE500" d="M0.352,0.472v83.4h67.954v-83.4H0.352z M41.44,51.376L19.452,73.368l-8.65-8.645l21.883-21.887
			L10.801,20.955l8.65-8.648L41.44,34.295l-8.541,8.542L41.44,51.376z"/>
	</g>
</g>
<path d="M126.012,25.299c7.372,0,12.066,4.188,14.245,9.635c2.347,5.782,1.594,12.486-4.274,16.675
	c6.705,2.851,9.135,9.051,9.135,14.581c0,8.799-5.781,17.681-17.012,17.681h-26.479V25.299H126.012z M110.008,48.594h15.837
	c9.216,0,9.385-15.251,0.167-15.251h-16.004V48.594z M110.008,75.66h18.098c5.7,0,8.549-4.778,8.549-9.386
	c0-4.608-2.849-9.302-8.549-9.302h-18.098V75.66z"/>
<path d="M126.014,25.299c7.372,0,12.067,4.188,14.246,9.635c2.347,5.782,1.594,12.486-4.274,16.676
	c6.705,2.851,9.135,9.051,9.135,14.581c0,8.799-5.781,17.681-17.012,17.681h-26.479V25.299H126.014z M110.01,48.595h15.837
	c9.216,0,9.385-15.251,0.167-15.251H110.01V48.595z M110.01,75.661h18.098c5.7,0,8.549-4.778,8.549-9.386
	c0-4.608-2.849-9.302-8.549-9.302H110.01V75.661z"/>
<path d="M160.162,54.124h9.887c7.124,0,10.643-5.11,10.643-10.223c0-5.028-3.52-10.14-10.643-10.14h-12.987v50.109h-8.379V25.215
	h21.367c12.738,0,19.107,9.383,19.107,18.686c0,8.295-5.113,16.172-15.168,17.932l18.518,22.038h-10.976l-21.368-25.724V54.124z"/>
<path d="M160.164,54.125h9.887c7.124,0,10.643-5.11,10.643-10.223c0-5.029-3.52-10.14-10.643-10.14h-12.988v50.11h-8.379V25.216
	h21.367c12.738,0,19.107,9.383,19.107,18.687c0,8.295-5.113,16.172-15.168,17.932l18.518,22.038h-10.976l-21.368-25.724V54.125z"/>
<path d="M231.933,66.608h-21.031c-2.264,5.363-5.195,12.403-7.04,17.263h-9.134l23.545-59.41h6.202l23.546,59.41h-9.051
	L231.933,66.608z M214.085,58.648h14.579l-7.205-20.696L214.085,58.648z"/>
<path d="M231.937,66.609h-21.032c-2.264,5.363-5.195,12.403-7.04,17.263h-9.134l23.545-59.41h6.203l23.546,59.41h-9.051
	L231.937,66.609z M214.088,58.649h14.58l-7.205-20.696L214.088,58.649z"/>
<path d="M264.434,83.871v-58.74l6.537,0.084l28.572,41.311V25.215h8.379v58.656h-6.701l-28.325-40.976v40.976H264.434z"/>
<path d="M264.438,83.872v-58.74l6.538,0.084l28.572,41.312V25.216h8.379v58.656h-6.701L272.9,42.896v40.976H264.438z"/>
<path d="M344.439,40.381c-1.175-5.277-6.871-7.541-11.986-7.457c-3.934,0.083-8.292,1.425-10.643,4.441
	c-1.168,1.508-1.586,3.436-1.421,5.447c0.418,6.033,7.042,6.787,13.323,7.374c8.044,1.006,18.017,3.101,20.279,12.485
	c0.251,1.257,0.418,2.682,0.418,3.855c0,11.313-11.228,17.848-21.785,17.848c-9.05,0-20.028-5.362-21.116-15.837l-0.084-1.592
	l8.544-0.168l0.087,1.257v-0.335c0.587,5.447,7.207,8.296,12.649,8.296c6.288,0,13.156-3.52,13.156-9.553
	c0-0.587-0.08-1.258-0.249-2.012c-1.003-4.441-7.038-5.194-12.907-5.782c-9.13-0.922-19.858-2.934-20.777-15.167v0.085
	c-0.336-3.939,0.669-7.878,3.182-11.146c3.938-5.111,10.976-7.793,17.765-7.793c9.052,0,18.437,4.693,19.945,15.418L344.439,40.381z
	"/>
<path d="M344.445,40.381c-1.175-5.277-6.871-7.541-11.986-7.457c-3.934,0.083-8.293,1.425-10.644,4.441
	c-1.168,1.508-1.586,3.436-1.421,5.447c0.418,6.033,7.043,6.787,13.324,7.374c8.044,1.006,18.017,3.101,20.279,12.485
	c0.251,1.257,0.418,2.682,0.418,3.855c0,11.313-11.228,17.848-21.785,17.848c-9.051,0-20.029-5.362-21.117-15.837l-0.084-1.592
	l8.544-0.168l0.087,1.257V67.7c0.587,5.447,7.208,8.296,12.65,8.296c6.288,0,13.156-3.52,13.156-9.553
	c0-0.587-0.08-1.258-0.249-2.012c-1.003-4.441-7.038-5.194-12.907-5.782c-9.131-0.922-19.859-2.934-20.778-15.167v0.085
	c-0.336-3.94,0.669-7.879,3.182-11.146c3.938-5.111,10.976-7.793,17.766-7.793c9.052,0,18.437,4.693,19.945,15.418L344.445,40.381z"
	/>
<path d="M357.948,66.274V25.299h8.549v41.06c0,6.452,6.955,9.637,13.156,9.637c6.114,0,13.07-3.269,13.07-9.721V25.299h8.549v41.06
	c0,11.898-11.564,18.1-21.619,18.1C369.347,84.458,357.948,78.257,357.948,66.274z"/>
<path d="M357.954,66.275V25.299h8.549v41.06c0,6.452,6.955,9.637,13.156,9.637c6.115,0,13.071-3.269,13.071-9.721V25.299h8.549
	v41.06c0,11.898-11.564,18.1-21.62,18.1C369.353,84.459,357.954,78.258,357.954,66.275z"/>
<path d="M414.754,83.871h-8.467V25.215h6.871l19.358,28.491l19.355-28.491h6.706v58.656h-8.382V42.56l-15.333,22.792h-4.779
	l-15.33-22.792V83.871z"/>
<path d="M414.761,83.872h-8.467V25.216h6.871l19.358,28.491l19.356-28.491h6.706v58.656h-8.382V42.561L434.87,65.354h-4.779
	l-15.33-22.793V83.872z"/>
<path d="M259.43,25.299h-8.511v58.572h8.511V25.299z"/>
<path d="M259.434,25.299h-8.511v58.573h8.511V25.299z"/>
</svg>
