<?xml version="1.0" encoding="utf-8"?><svg version="1.1" xmlns="http://www.w3.org/2000/svg" x="0" y="0" width="600" height="160" viewBox="0 0 600 160"><g style="fill:#fff"><polygon points="196.3,44.1 196,44.1 189.6,82.1 186,101.5 206.4,101.5 202.7,82.1"/><path d="M121.1,42.5h-15v34.7h14c2.8-0.6,9.5-7,9.5-17.8C129.6,50.3,124.2,43.3,121.1,42.5z"/><path d="M42.2,88.5H24.6v29.7h16.8c3.4-2.4,7.7-9.1,7.7-16.1C49.1,96.3,46.1,90.9,42.2,88.5z"/><path d="M-5-5v170h610V-5H-5z M51.5,137.1H2.5V22.9h46.5c9,3.3,20.4,12.7,20.4,28c0,13.5-4.9,21.4-12.1,25.8v0.6c7.7,4.2,15,12.1,15,26.1C72.2,121.3,59.7,131.9,51.5,137.1z M151.5,137.1h-22.8l-13.9-41.6h-8.6v41.6h-22V22.9h43.4c12.4,4.1,24.8,16.3,24.8,35.2c0,16.3-8,26.6-17.3,32.1L151.5,137.1z M212.6,137.1l-3.4-18.1h-25.8l-3.4,18.1h-22.2l22-114.1h33.8l20.9,114.1H212.6z M266.2,137.1h-22.3V22.9h22.3V137.1z M347.9,137.1h-15.2L302.3,74l-0.8,0.3l1,19.2v43.5h-20.5V22.9h16.5l30,65.5l0.8-0.3l-1.8-20.1V22.9h20.5V137.1z M404.5,137.1h-43.2v-18.9h33.7l0.5-1l-29.3-52.7c-3.8-6.7-6.4-13.2-6.4-18.6c0-7.8,2.9-18.3,14.2-23h39.1v19.6h-31.3l-0.5,1l26.1,47.6c3.9,7,8,15.7,8,21.8C415.4,125,410.4,133,404.5,137.1z M497.8,90.3c0,17.4-0.3,32.4-17.8,46.8h-36.2c-17.3-14-17.8-29.3-17.8-46.8V22.9h22.3v75.5c0,11.6,2.8,15.3,6.7,19.7h13.7c3.9-4.4,6.7-8.2,6.7-19.7V22.9h22.3V90.3z M576.2,137.1l-3.1-62.3h-0.8l-11.7,46h-13.4l-11.7-46h-0.8l-3.1,62.3h-21.4l7.3-114.1h20.4l7,26.3l8.6,35.7h0.7l8.6-35.7l7-26.3h20.4l7.3,114.1H576.2z"/><path d="M47.9,56c0-7.3-3.6-11.1-6.7-13.5H24.6v27.6h16.1C44.7,67.6,47.9,63,47.9,56z"/></g></svg>