<?xml version="1.0" encoding="utf-8"?>
<!-- Generator: Adobe Illustrator 16.0.0, SVG Export Plug-In . SVG Version: 6.00 Build 0)  -->
<!DOCTYPE svg PUBLIC "-//W3C//DTD SVG 1.1//EN" "http://www.w3.org/Graphics/SVG/1.1/DTD/svg11.dtd">
<svg version="1.1" id="Layer_1" xmlns="http://www.w3.org/2000/svg" xmlns:xlink="http://www.w3.org/1999/xlink" x="0px" y="0px"
	 width="566.93px" height="566.93px" viewBox="0 0 566.93 566.93" enable-background="new 0 0 566.93 566.93" xml:space="preserve">
<g>
	<g>
		<path fill="#FFE500" d="M54.352,241.472v83.399h67.953v-83.399H54.352z M95.439,292.375l-21.988,21.992l-8.65-8.645l21.882-21.886
			l-21.882-21.882l8.65-8.647l21.988,21.988l-8.541,8.542L95.439,292.375z"/>
	</g>
</g>
<path d="M180.012,266.299c7.372,0,12.066,4.188,14.245,9.635c2.347,5.782,1.594,12.486-4.274,16.675
	c6.705,2.851,9.135,9.051,9.135,14.581c0,8.799-5.781,17.681-17.012,17.681h-26.479v-58.572H180.012z M164.008,289.594h15.837
	c9.216,0,9.385-15.251,0.167-15.251h-16.004V289.594z M164.008,316.66h18.098c5.7,0,8.549-4.778,8.549-9.386
	c0-4.608-2.849-9.302-8.549-9.302h-18.098V316.66z"/>
<path d="M214.162,295.124h9.887c7.124,0,10.643-5.11,10.643-10.223c0-5.028-3.52-10.14-10.643-10.14h-12.987v50.109h-8.379v-58.656
	h21.367c12.738,0,19.107,9.383,19.107,18.686c0,8.295-5.113,16.172-15.168,17.932l18.518,22.038h-10.976l-21.368-25.724V295.124z"/>
<path d="M285.933,307.608h-21.031c-2.264,5.363-5.195,12.403-7.04,17.263h-9.134l23.545-59.41h6.202l23.546,59.41h-9.051
	L285.933,307.608z M268.085,299.648h14.579l-7.205-20.696L268.085,299.648z"/>
<path d="M318.434,324.871v-58.74l6.537,0.084l28.572,41.311v-41.311h8.379v58.656h-6.701l-28.325-40.976v40.976H318.434z"/>
<path d="M398.439,281.381c-1.175-5.277-6.871-7.541-11.986-7.457c-3.934,0.083-8.292,1.425-10.643,4.441
	c-1.168,1.508-1.586,3.436-1.421,5.447c0.418,6.033,7.042,6.787,13.323,7.374c8.044,1.006,18.017,3.101,20.279,12.485
	c0.251,1.257,0.418,2.682,0.418,3.855c0,11.313-11.228,17.848-21.785,17.848c-9.05,0-20.028-5.362-21.116-15.837l-0.084-1.592
	l8.544-0.168l0.087,1.257v-0.335c0.587,5.447,7.207,8.296,12.649,8.296c6.288,0,13.156-3.52,13.156-9.553
	c0-0.587-0.08-1.258-0.249-2.012c-1.003-4.441-7.038-5.194-12.907-5.782c-9.13-0.922-19.858-2.934-20.777-15.167v0.085
	c-0.336-3.939,0.669-7.878,3.182-11.146c3.938-5.111,10.976-7.793,17.765-7.793c9.052,0,18.437,4.693,19.945,15.418L398.439,281.381
	z"/>
<path d="M411.948,307.274v-40.976h8.549v41.06c0,6.452,6.955,9.637,13.156,9.637c6.114,0,13.07-3.269,13.07-9.721v-40.976h8.549
	v41.06c0,11.898-11.564,18.1-21.619,18.1C423.347,325.458,411.948,319.257,411.948,307.274z"/>
<path d="M468.754,324.871h-8.467v-58.656h6.871l19.358,28.491l19.355-28.491h6.706v58.656h-8.382V283.56l-15.333,22.792h-4.779
	l-15.33-22.792V324.871z"/>
<path d="M313.43,266.299h-8.511v58.572h8.511V266.299z"/>
</svg>
