<?xml version="1.0" standalone="no"?>
<!DOCTYPE svg PUBLIC "-//W3C//DTD SVG 1.1//EN" "http://www.w3.org/Graphics/SVG/1.1/DTD/svg11.dtd" >
<svg xmlns="http://www.w3.org/2000/svg" xmlns:xlink="http://www.w3.org/1999/xlink" version="1.1">
<metadata></metadata>
<defs>
<font id="josefin_slabbold_italic" horiz-adv-x="1545" >
<font-face units-per-em="2048" ascent="1536" descent="-512" />
<missing-glyph horiz-adv-x="847" />
<glyph horiz-adv-x="0" />
<glyph unicode="&#xd;" horiz-adv-x="847" />
<glyph unicode=" "  horiz-adv-x="847" />
<glyph unicode="&#x09;" horiz-adv-x="847" />
<glyph unicode="&#xa0;" horiz-adv-x="847" />
<glyph unicode="!" horiz-adv-x="567" d="M132 0q-56 0 -94 42t-32 108q8 65 60.5 106t108.5 41q54 0 92 -41t30 -106q-9 -64 -60 -107t-105 -43v0zM310 2120h235l-232 -1651h-234z" />
<glyph unicode="&#x22;" horiz-adv-x="946" d="M504 1334l98 702h234q-27 -179 -54 -351.5t-56 -350.5h-222zM127 1334l99 702h235q-28 -179 -55.5 -351.5t-54.5 -350.5h-224z" />
<glyph unicode="#" horiz-adv-x="1613" d="M647 1049q-16 -73 -35 -144t-38 -145h283q19 74 38 145t35 144h-283zM658 0q35 135 70 265.5t70 265.5h-283q-35 -135 -70 -265.5t-70 -265.5h-237q34 135 69.5 265.5t69.5 265.5h-260l59 229h261q19 74 37.5 145t35.5 144h-257q14 56 28 114t29 115h259 q37 135 72.5 269.5t71.5 269.5h237q-37 -135 -71.5 -269.5t-71.5 -269.5h282q38 135 73 269.5t71 269.5h237q-37 -135 -72 -269.5t-71 -269.5h288q-14 -57 -28.5 -115t-27.5 -114h-292q-16 -73 -34.5 -144t-38.5 -145h287l-59 -229h-287q-35 -135 -70 -265.5t-69 -265.5 h-238z" />
<glyph unicode="$" horiz-adv-x="1602" d="M1052 1543l24 167q-37 16 -79 30.5t-96 20.5l-87 -636q87 -32 170.5 -71.5t145.5 -104t92 -166t10 -254.5q-16 -116 -68.5 -210.5t-130.5 -166t-176.5 -115t-203.5 -54.5l-25 -175h-237l24 184q-167 25 -288 101.5t-167 168.5l43 329h223l-37 -252q51 -42 113 -76 t145 -50l106 756q-76 25 -146 59.5t-120 89.5t-74 137t-10 206q8 79 42.5 162.5t94 155.5t148.5 124t208 76l24 181h238l-25 -176q91 -8 189.5 -42.5t191.5 -121.5l-39 -277h-223zM998 531q11 79 -1.5 137t-42 100.5t-75 72.5t-99.5 52l-96 -680q119 24 206.5 103.5 t107.5 214.5zM437 1453q-13 -96 31 -151.5t120 -95.5l73 536q-99 -38 -154.5 -115t-69.5 -174z" />
<glyph unicode="%" horiz-adv-x="2050" d="M1294 313q-8 -56 22 -92.5t86 -36.5q57 0 95 36.5t46 92.5q8 57 -21.5 92t-86.5 35q-56 0 -94 -35t-47 -92zM1368 -46q-74 0 -136 28.5t-104.5 77t-62 113t-8.5 140.5q11 73 49 139t93 113.5t126.5 75.5t144.5 28t135 -28t105 -75.5t62 -112.5t8 -140q-11 -76 -49 -140.5 t-94.5 -113t-126 -77t-142.5 -28.5zM545 1100q-8 -57 21.5 -94t86.5 -37q56 0 94 37t47 94q8 56 -21 91.5t-86 35.5q-56 0 -95 -35.5t-47 -91.5zM620 741q-74 0 -136.5 28.5t-104.5 76t-62 112.5t-9 142q11 73 49.5 138t93.5 113t125.5 76.5t143.5 28.5q74 0 136.5 -28.5 t104.5 -76.5t62 -113t9 -138q-11 -76 -49.5 -141.5t-95 -113t-125.5 -76t-142 -28.5zM391 0q262 356 520.5 706.5t520.5 706.5h258q-262 -356 -521.5 -706.5t-521.5 -706.5h-256z" />
<glyph unicode="&#x26;" horiz-adv-x="1977" d="M1190 1060h506l-32 -229h-267l-18 -113q-3 -22 -7 -57.5t-9.5 -79.5t-15.5 -89t-25 -82l164 -342l-200 -122l-110 232q-91 -94 -212.5 -148.5t-256.5 -54.5q-119 0 -215 43.5t-163 120t-96.5 176.5t-11.5 216q14 102 60.5 192.5t118.5 162.5t162.5 121.5t189.5 66.5 l-153 328q-40 84 -47 174.5t18.5 177t89 164t165.5 134.5q87 48 170.5 58t160 -6t143 -47t114.5 -64l-119 -184q-24 17 -65.5 38.5t-88 32.5t-94.5 11t-91 -25q-127 -73 -155.5 -186.5t25.5 -223.5l326 -685v9zM455 531q-19 -138 59.5 -233t226.5 -95q108 0 195 53.5 t135 142.5l-214 458q-159 0 -269.5 -86.5t-132.5 -239.5z" />
<glyph unicode="'" horiz-adv-x="459" d="M68 1334l99 702h237q-27 -179 -54.5 -351.5t-55.5 -350.5h-226z" />
<glyph unicode="(" horiz-adv-x="1197" d="M326 822q27 213 93.5 405t155.5 356t191 298t203 228q48 -17 99 -33t99 -32q-93 -94 -189 -221t-179.5 -282t-145.5 -336.5t-90 -382.5q-28 -200 -17.5 -381.5t50.5 -336.5t101 -282t128 -221q-54 -16 -107.5 -32t-107.5 -33q-76 94 -141 228t-107.5 298t-55 356 t19.5 404z" />
<glyph unicode=")" horiz-adv-x="1130" d="M882 814q-32 -212 -98 -404t-155 -356t-190.5 -298t-203.5 -228q-49 14 -100 30t-98 29q94 94 189.5 221t179 282.5t145.5 336t91 382.5q27 200 16 380.5t-50 336.5t-100 283t-130 220q54 16 108 34.5t107 36.5q76 -93 141.5 -227t108 -298.5t54.5 -356t-15 -404.5z" />
<glyph unicode="*" horiz-adv-x="946" d="M704 1626q43 -25 83.5 -51.5t80.5 -50.5q-37 -52 -73.5 -104t-74.5 -103q-40 24 -80.5 52t-79.5 52q-5 -48 -14 -97t-17 -97h-227l29 197q-45 -25 -92 -49t-95 -49q-23 51 -44 103t-43 103q48 22 93 47.5t93 48.5q-40 25 -78 52t-78 52l137 196q42 -25 83 -52.5t81 -52.5 l30 213h238l-34 -213l195 102q22 -48 43.5 -98t40.5 -98q-48 -25 -97 -52t-100 -51z" />
<glyph unicode="+" horiz-adv-x="1534" d="M560 144l55 393h-389l31 229h390l57 396h237l-56 -396h390l-32 -229h-390l-55 -393h-238z" />
<glyph unicode="," horiz-adv-x="564" d="M500 243q-82 -146 -162.5 -290.5t-162.5 -291.5h-209q73 146 146.5 291t149.5 291h238z" />
<glyph unicode="-" horiz-adv-x="847" d="M132 415l32 229h520l-31 -229h-521z" />
<glyph unicode="." horiz-adv-x="459" d="M91 146q11 65 61.5 108t106.5 43q54 0 94 -42t28 -109q-8 -65 -58.5 -105.5t-104.5 -40.5q-57 0 -96 40.5t-31 105.5z" />
<glyph unicode="/" horiz-adv-x="1073" d="M-102 -54q274 537 542.5 1067t543.5 1067h237q-274 -537 -544 -1067t-545 -1067h-234z" />
<glyph unicode="0" horiz-adv-x="1740" d="M105 925q32 215 114.5 388t202.5 294.5t268.5 187t307.5 65.5q158 0 286.5 -68t213.5 -191t117.5 -298.5t0.5 -388.5q-32 -216 -120 -388.5t-212.5 -295t-270 -187.5t-290.5 -65q-143 0 -270 67.5t-215 192t-126.5 298t-6.5 389.5zM342 922q-22 -151 0 -280.5t78.5 -226 t141.5 -152.5t193 -56q105 0 207.5 53t189 149.5t146 226.5t81.5 280q16 102 8 226.5t-53 233t-134 182t-234 73.5q-144 0 -254 -72.5t-187.5 -179.5t-123 -231t-59.5 -226z" />
<glyph unicode="1" horiz-adv-x="818" d="M-32 224h221l196 1384h-193l32 229h429l-227 -1613h224l-30 -224h-682z" />
<glyph unicode="2" horiz-adv-x="1465" d="M615 229h464l37 262h224l-70 -491h-1253q197 175 385.5 340.5t336.5 319.5t245.5 299.5t118.5 278.5q13 105 -11 178t-69 121.5t-103 71t-109 22.5q-107 0 -181 -37t-120 -90.5t-70.5 -112.5t-29.5 -105q-25 -181 70 -294l-164 -145q-43 32 -73 84.5t-49 113t-24.5 124 t2.5 117.5q17 113 69.5 217.5t140 183.5t203.5 126t260 47q129 0 230 -48t165.5 -129t93 -186.5t12.5 -224.5q-20 -140 -88 -272t-167 -262.5t-222.5 -256t-253.5 -252.5z" />
<glyph unicode="3" horiz-adv-x="1454" d="M435 922l490 683h-315l-17 -133h-223l51 365h930l-501 -672q87 -35 156.5 -90t116.5 -128t65 -163.5t4 -192.5q-16 -127 -82.5 -239t-163 -195.5t-215 -131t-245.5 -47.5q-135 0 -243 54.5t-181 145.5l195 161q42 -62 110 -97t153 -35q79 0 153 31t133 83t100 121.5 t52 148.5q11 78 -10 148t-66.5 120t-110 80t-143.5 30q-102 1 -193 -47z" />
<glyph unicode="4" horiz-adv-x="1494" d="M588 224h212l42 294h-796l1224 1342l-159 -1113h275l-32 -229h-275l-41 -294h234l-31 -224h-685zM933 1167l-382 -420h323z" />
<glyph unicode="5" horiz-adv-x="1534" d="M1346 1837l-52 -365h-223l16 136h-349l-56 -416q16 3 34 4.5t39 1.5q127 0 233 -46.5t178 -130t105.5 -193.5t17.5 -237q-17 -127 -84 -239t-162.5 -195.5t-214.5 -131t-246 -47.5q-124 0 -226 45t-172 127l194 158q43 -49 103.5 -75t133.5 -26q79 0 153 31t133 83 t100.5 121.5t52.5 148.5q11 78 -10 148t-66 120t-110 80t-145 30q-99 0 -184.5 -32.5t-147.5 -111.5l143 1012h812z" />
<glyph unicode="6" horiz-adv-x="1468" d="M337 591q-11 -79 7 -148.5t62 -121.5t107.5 -83t139.5 -31q78 0 152 31t133.5 83t100 121.5t53.5 148.5q11 78 -10.5 148t-67 120t-110.5 80t-144 30q-76 0 -148 -30t-130 -80t-96 -120t-49 -148zM87 556q28 203 140 380.5t269 330t342 285.5t360 249q32 -46 61.5 -91.5 t59.5 -89.5q-200 -121 -342.5 -227.5t-245.5 -197.5q14 0 30 1.5t30 1.5q127 0 233 -46.5t178.5 -130t106.5 -193.5t17 -237q-16 -127 -83 -239t-163 -195.5t-214.5 -131t-245.5 -47.5q-122 0 -225.5 45t-176 123t-107.5 183.5t-24 226.5z" />
<glyph unicode="7" horiz-adv-x="1324" d="M1334 1837l-1083 -1837h-265l950 1605h-577l-20 -133h-223l51 365h1167z" />
<glyph unicode="8" horiz-adv-x="1440" d="M577 1408q-14 -91 39 -150.5t142 -59.5q91 0 160 59.5t82 150.5q14 91 -38.5 157t-141.5 66q-43 0 -83.5 -18.5t-74.5 -49.5t-57 -70.5t-28 -84.5zM297 591q-11 -79 9 -148.5t62 -121.5t105.5 -83t139.5 -31q78 0 152 31t134.5 83t101 121.5t51.5 148.5q11 76 -9 144 t-62.5 118.5t-106 81.5t-140.5 34q-81 0 -155.5 -30t-132.5 -80t-98 -120t-51 -148zM54 591q22 164 120 298t241 216q-48 57 -70.5 134.5t-7.5 168.5q11 93 57 174.5t116 143.5t156 98t179 36t171 -36t130 -98t76 -144t13 -174q-14 -91 -58 -168.5t-109 -134.5 q119 -81 179.5 -215.5t38.5 -298.5q-16 -127 -82 -239t-161.5 -195.5t-214.5 -131t-246 -47.5t-231.5 47.5t-176.5 131t-104.5 195.5t-15.5 239z" />
<glyph unicode="9" horiz-adv-x="1483" d="M1103 1184q11 79 -8 148.5t-62.5 122t-107 83.5t-140.5 31q-78 0 -151.5 -31t-133.5 -83.5t-100.5 -122t-51.5 -148.5t9.5 -148.5t66 -120t110.5 -80t145 -29.5q76 0 147.5 29.5t129.5 80t97 120t50 148.5zM1346 1184q-25 -192 -138.5 -364.5t-273.5 -323.5 t-343.5 -281.5t-350.5 -239.5q-32 46 -61 90.5t-60 90.5q200 121 342.5 227t245.5 197q-14 -3 -30 -3h-30q-127 0 -233 46t-178 129.5t-105.5 194t-17.5 237.5q17 127 83 239t162.5 195.5t215.5 131.5t246 48t231.5 -49.5t175 -133t103 -195.5t16.5 -236z" />
<glyph unicode=":" horiz-adv-x="494" d="M141 853q8 65 59 107.5t108 42.5q54 0 93 -42t31 -108q-8 -65 -59 -105.5t-104 -40.5q-56 0 -96.5 40.5t-31.5 105.5zM43 146q8 65 59 108t108 43q54 0 93 -42t31 -109q-8 -65 -59 -105.5t-105 -40.5q-57 0 -96.5 40.5t-30.5 105.5z" />
<glyph unicode=";" horiz-adv-x="567" d="M251 853q11 65 62 107.5t108 42.5q54 0 93 -42t28 -108q-8 -65 -59 -105.5t-105 -40.5q-56 0 -95.5 40.5t-31.5 105.5zM407 243q-81 -146 -162 -290.5t-164 -291.5h-208q76 146 148.5 291t148.5 291h237z" />
<glyph unicode="&#x3c;" horiz-adv-x="1920" d="M1507 280l-46 -320q-285 178 -566.5 356t-566.5 356q334 178 666 356t668 358l-46 -321q-184 -99 -367.5 -196.5t-366.5 -196.5q156 -99 311 -195.5t314 -196.5z" />
<glyph unicode="=" horiz-adv-x="1999" d="M1690 545l-34 -229h-1430l33 229h1431zM1766 1094l-34 -229h-1430l35 229h1429z" />
<glyph unicode="&#x3e;" horiz-adv-x="1836" d="M226 -40l46 320q183 100 366.5 197t370.5 195q-159 99 -314 196.5t-314 196.5l45 321q286 -178 567.5 -357t570.5 -357q-337 -178 -669 -356t-669 -356z" />
<glyph unicode="?" horiz-adv-x="1276" d="M396 1559q-48 20 -99 38.5t-100 39.5q28 62 76.5 136.5t123.5 140t180 110.5t248 45q116 0 212 -43.5t159.5 -119t93 -175.5t13.5 -213q-22 -159 -112.5 -276t-235.5 -214q-43 -28 -92 -57.5t-94.5 -67.5t-78 -90.5t-43.5 -128.5l-32 -220h-237l40 274q11 91 49.5 147 t90.5 99.5t119 82t137 89.5q113 76 174 166.5t75 195.5q19 138 -54 230t-215 92q-159 0 -247.5 -71.5t-150.5 -209.5zM429 0q-56 0 -95.5 40.5t-31.5 105.5q11 65 62 108t108 43q54 0 93 -42t28 -109q-8 -65 -59 -105.5t-105 -40.5z" />
<glyph unicode="@" horiz-adv-x="2797" d="M1038 531q-20 -138 59 -233t225 -95q73 0 137.5 25.5t115.5 69.5t83 105t41 128q22 141 -56.5 233.5t-226.5 92.5q-73 0 -136.5 -24t-114.5 -68.5t-83.5 -103.5t-43.5 -130zM2570 531q-32 -150 -104 -250t-159.5 -163.5t-182.5 -90.5t-171 -27h-300l9 57q2 13 3.5 27.5 t4.5 28.5q-6 -8 -34 -31t-77 -45.5t-117.5 -42t-149.5 -19.5q-119 0 -217.5 43.5t-164 120t-97 176.5t-13.5 214q17 110 75 210t145.5 176.5t198 120t229.5 43.5q73 0 133.5 -19t104 -46t69 -52.5t28.5 -34.5q5 32 15.5 65t16.5 68h194l-118 -831h93q57 0 113.5 15t103 51 t80 94t51.5 142q28 200 -22 375.5t-161 307.5t-273.5 206.5t-360.5 74.5q-200 0 -385.5 -74.5t-334 -206.5t-248.5 -307.5t-129 -375.5q-27 -200 23 -374t163.5 -304t277.5 -204.5t364 -74.5q167 0 322.5 49t294.5 137q32 -43 59.5 -83.5t59.5 -83.5q-79 -62 -174 -109 t-196.5 -78t-204 -46.5t-194.5 -15.5q-248 0 -454 93.5t-345 255t-201.5 378.5t-28.5 463t158 464t309 378.5t417 254t480 93.5q246 0 449.5 -93.5t342 -254t201.5 -378.5t29 -467z" />
<glyph unicode="A" horiz-adv-x="2225" d="M130 224h232q259 466 519 922t521 923q133 -467 262.5 -923t263.5 -922h232l-32 -224h-628l32 224h158q-40 140 -79 279t-79 279h-623l-313 -558h162l-32 -224h-627zM1343 1456l-14 92q-3 -5 -10.5 -19t-13.5 -32q-11 -19 -19 -41q-45 -82 -91 -162q-40 -67 -80.5 -146.5 t-73.5 -141.5h429z" />
<glyph unicode="B" horiz-adv-x="1531" d="M130 224h127l215 1531h-127l30 224h645q138 0 248.5 -28.5t184 -87.5t104.5 -154.5t12 -224.5q-22 -176 -124 -308.5t-280 -180.5q78 -17 146 -57t114.5 -102t69.5 -144t9 -183q-16 -127 -84.5 -222t-166 -158.5t-217.5 -96t-242 -32.5h-695zM582 885l-91 -661h315 q87 0 166.5 19t143 60.5t105.5 101t54 140.5q11 87 -18.5 152.5t-89 106.5t-141.5 61t-169 20h-275zM707 1755l-92 -647h307q167 0 275 93t132 247q22 167 -68.5 237t-254.5 70h-299z" />
<glyph unicode="C" horiz-adv-x="1723" d="M1620 1543l25 172q-133 62 -286 62q-161 0 -311 -62t-270 -171t-200.5 -253t-102.5 -304q-22 -162 18.5 -306t131 -249.5t222 -168.5t291.5 -63q208 0 402 105l102 -186q-124 -65 -257 -103t-277 -38q-210 0 -382.5 78.5t-291 216t-171.5 321t-23 393.5q28 209 134 394 t261.5 322t350.5 217.5t405 80.5q144 0 268 -36.5t229 -104.5l-46 -317h-222z" />
<glyph unicode="D" horiz-adv-x="1785" d="M130 226h132l215 1529h-132l30 224h594q203 0 374.5 -69.5t289 -199.5t171 -312t22.5 -411q-25 -167 -107 -342.5t-232 -318t-370.5 -234.5t-520.5 -92h-497zM712 1755l-215 -1529h199q166 0 317.5 54t271.5 154t200.5 240t105.5 315q25 176 -15.5 317.5t-134 241.5 t-229.5 153.5t-303 53.5h-197z" />
<glyph unicode="E" horiz-adv-x="1613" d="M130 224h158l216 1531h-159l30 224h1378l-63 -436h-223l30 212h-759l-91 -647h874l-35 -223h-873l-90 -661h799l29 211h224l-60 -435h-1416z" />
<glyph unicode="F" horiz-adv-x="1573" d="M130 224h158l216 1531h-159l30 224h1378l-63 -436h-223l30 212h-759l-91 -647h874l-35 -223h-873l-90 -661h291l-32 -224h-683z" />
<glyph unicode="G" horiz-adv-x="1720" d="M1597 842l-102 -729q-122 -65 -254.5 -103t-277.5 -38q-210 0 -381.5 79t-290.5 216t-172.5 320.5t-24.5 393.5q27 210 133.5 394t263 321.5t352 218t403.5 80.5q144 0 267.5 -36.5t230.5 -105.5l-158 -189q-79 51 -171.5 79.5t-198.5 28.5q-162 0 -311.5 -62 t-269.5 -171t-202 -253.5t-105 -304.5q-22 -161 19 -305.5t131.5 -250.5t221.5 -168t292 -62q146 0 289 51l51 374h-291l30 222h526z" />
<glyph unicode="H" horiz-adv-x="2181" d="M1675 1979h685l-31 -224h-223l-215 -1531h223l-32 -224h-683l31 224h226l91 661h-1068l-91 -661h226l-32 -224h-683l31 224h223l216 1531h-224l30 224h685l-32 -224h-225l-91 -647h1068l91 647h-226z" />
<glyph unicode="I" horiz-adv-x="880" d="M130 224h223l216 1531h-224l30 224h685l-32 -224h-225l-215 -1531h226l-32 -224h-683z" />
<glyph unicode="J" horiz-adv-x="877" d="M262 1979h682l-243 -1725q-22 -159 -91.5 -279.5t-171 -204t-232 -129t-274.5 -48.5l28 223q97 6 183 37t153.5 87.5t112 137.5t57.5 184l213 1493h-447z" />
<glyph unicode="K" horiz-adv-x="1937" d="M1243 224h148q-132 200 -262.5 399t-257.5 402l-202 -165q-22 -162 -43.5 -318.5t-43.5 -317.5h232l-32 -224h-683l31 224h218l215 1531h-218l30 224h628l-30 -224h-175l-80 -552q-6 -22 -10 -44.5t-10 -44.5l62 65l688 576h-105l30 224h628l-32 -224h-234l-689 -579 q156 -240 310 -476t311 -476h204l-31 -224h-627z" />
<glyph unicode="L" horiz-adv-x="1613" d="M130 224h158l216 1531h-159l30 224h628l-30 -224h-235l-215 -1531h799l29 211h224l-60 -435h-1416z" />
<glyph unicode="M" horiz-adv-x="2757" d="M2619 1979h318l-32 -224h-246l-214 -1531h246l-32 -224h-683l31 224h204l154 1105q6 22 10 45t11 45q-25 -32 -52.5 -66t-55.5 -64q-202 -240 -420.5 -470.5t-430.5 -465.5l-618 990l-40 76q0 -22 -1.5 -45t-1.5 -45l-156 -1105h204l-32 -224h-683l31 224h245l216 1531 h-246l30 224h318q197 -313 392.5 -625.5t395.5 -627.5q285 313 567.5 626.5t570.5 626.5z" />
<glyph unicode="N" horiz-adv-x="2416" d="M141 224h247l214 1531h-246l32 224h327l1159 -1479l43 -74l5 92l173 1237h-204l31 224h683l-30 -224h-246l-258 -1846l-1232 1539l-41 73l-7 -91l-169 -1206h203l-31 -224h-684z" />
<glyph unicode="O" horiz-adv-x="2220" d="M240 987q28 207 132.5 392t261.5 323t352 218.5t405 80.5q207 0 380 -80.5t292 -218.5t174 -324t26 -391q-32 -210 -137.5 -393.5t-262 -321t-353 -216t-402.5 -78.5q-210 0 -382.5 78.5t-291 216t-172.5 321t-22 393.5zM475 987q-22 -165 18.5 -307.5t131 -248 t223.5 -168.5t293 -63q162 0 311.5 63t269.5 168.5t202.5 248t104.5 307.5q22 164 -19 306t-132.5 249.5t-222.5 170t-293 62.5q-161 0 -311 -62.5t-271.5 -170t-202 -249.5t-102.5 -306z" />
<glyph unicode="P" horiz-adv-x="1460" d="M130 224h127l215 1531h-127l30 224h594q96 0 209.5 -29.5t205 -95.5t145.5 -167t35 -246q-38 -257 -211.5 -408t-462.5 -151h-308l-91 -658h323l-32 -224h-683zM615 1108h247q125 0 209.5 32.5t140 81t81.5 107.5t36 112q8 62 -16 118.5t-73.5 100.5t-123 69.5 t-161.5 25.5h-248z" />
<glyph unicode="Q" horiz-adv-x="2282" d="M475 987q-22 -162 18.5 -306t131 -249.5t222 -168.5t291.5 -63q162 0 311.5 63t271 168.5t204 249.5t104.5 306q22 161 -20.5 304.5t-132.5 252.5t-222.5 171t-294.5 62q-161 0 -311 -62t-270 -171t-200.5 -252.5t-102.5 -304.5zM240 987q28 209 134 394t261.5 322 t350.5 217.5t405 80.5t383 -80.5t292 -217.5t172.5 -322.5t24.5 -393.5q-34 -229 -156.5 -427t-302.5 -336h415l-32 -224h-868q-113 -22 -211 -22q-210 0 -382.5 78.5t-291 216t-172.5 321t-22 393.5z" />
<glyph unicode="R" horiz-adv-x="1627" d="M130 224h127l215 1531h-127l30 224h594q96 0 209.5 -29.5t205 -95.5t145.5 -167t35 -246q-32 -213 -157.5 -355t-335.5 -188l223 -674h265l-30 -224h-413l-294 882h-121h-119l-91 -658h323l-32 -224h-683zM615 1108h247q125 0 209.5 32.5t140 81t81.5 107.5t36 112 q8 62 -16 118.5t-73.5 100.5t-123 69.5t-161.5 25.5h-248z" />
<glyph unicode="S" horiz-adv-x="1349" d="M99 262l45 329h223l-36 -252q68 -56 164 -97.5t223 -41.5q73 0 144 21.5t129 63t97 103.5t50 143q17 111 -12 181t-87 116t-137.5 74t-161.5 55t-161 59.5t-135 87.5t-86 140t-13 217q11 94 51.5 187.5t117.5 169t191.5 124t270.5 48.5q51 0 108 -5.5t120 -23t128 -51 t124 -90.5l-40 -277h-224l27 167q-52 22 -121.5 39t-153.5 17q-164 0 -256 -93t-108 -220q-11 -84 21 -137t91.5 -88.5t138 -61t162 -55t160.5 -70.5t133.5 -107t82 -164t4.5 -241q-16 -127 -78.5 -229.5t-151.5 -174t-202 -109.5t-232 -38q-107 0 -204.5 23.5t-178 63.5 t-140 90.5t-87.5 106.5z" />
<glyph unicode="T" horiz-adv-x="1759" d="M553 224h245l214 1531h-443l-32 -212h-224l62 436h1564l-62 -436h-224l32 212h-439l-214 -1531h206l-32 -224h-683z" />
<glyph unicode="U" horiz-adv-x="2058" d="M378 1979h685l-31 -224h-232l-156 -1108q-31 -218 86 -332.5t330 -114.5q105 0 196.5 29.5t163.5 86.5t119 140.5t63 190.5l156 1108h-232l31 224h684l-30 -224h-218l-159 -1116q-22 -162 -94.5 -286t-179.5 -207.5t-243 -125.5t-289 -42t-276.5 42t-208.5 125.5 t-121.5 207.5t-14.5 286l159 1116h-218z" />
<glyph unicode="V" horiz-adv-x="2288" d="M388 1979h683l-30 -224h-205q91 -307 176 -615.5t175 -616.5l11 -94l40 94q175 308 347.5 615t345.5 617h-167l30 224h684l-30 -224h-280q-259 -466 -519.5 -923t-521.5 -923q-132 466 -262.5 923t-262.5 923h-246z" />
<glyph unicode="W" horiz-adv-x="3328" d="M388 1979h683l-30 -224h-205q91 -307 176 -615.5t175 -616.5l11 -94q51 127 119.5 253.5t141.5 252t148 249.5t143 246q-22 81 -46.5 162t-47.5 163h-259l30 224h684l-31 -224h-189q91 -307 175.5 -615.5t174.5 -616.5l11 -94l40 94q175 308 347.5 615t345.5 617h-181 l31 224h684l-32 -224h-265q-259 -466 -520 -923t-520 -923l-337 1178l-14 100q-62 -159 -147 -321t-180.5 -323.5t-193 -321t-183.5 -312.5q-132 466 -262.5 923t-262.5 923h-246z" />
<glyph unicode="X" horiz-adv-x="1960" d="M375 1979h685l-32 -224h-154q62 -124 124 -244t124 -241l25 -78l48 78l385 485h-156l32 224h683l-30 -224h-243q-153 -191 -301.5 -382.5t-301.5 -380.5q99 -194 197.5 -384t198.5 -384h234l-30 -224h-684l31 224h155l-257 505q-8 19 -15.5 39t-13.5 41l-47 -80 q-102 -127 -201.5 -252.5t-197.5 -252.5h181l-32 -224h-683l31 224h212l624 785l-381 746h-240z" />
<glyph unicode="Y" horiz-adv-x="2228" d="M814 224h189l73 539q-113 249 -224 496.5t-221 495.5h-286l30 224h685l-32 -224h-112q79 -172 157 -344.5t157 -345.5l19 -87h3l45 87l507 690h-111l31 224h684l-32 -224h-284q-183 -248 -363.5 -497t-363.5 -498l-73 -536h205l-30 -224h-685z" />
<glyph unicode="Z" horiz-adv-x="1777" d="M1775 684l-96 -684h-1580l31 226l1424 1529h-1163l44 322h234l-13 -98h1218l-32 -224l-1424 -1529h1068l65 458h224z" />
<glyph unicode="[" horiz-adv-x="954" d="M57 -421l353 2530h542l-30 -229h-309l-291 -2072h309l-32 -229h-542z" />
<glyph unicode="\" horiz-adv-x="1087" d="M415 2080q122 -537 242 -1067t241 -1067h-265q-121 537 -241 1067t-242 1067h265z" />
<glyph unicode="]" horiz-adv-x="965" d="M885 2109l-354 -2530h-539l27 229h309l292 2072h-310l32 229h543z" />
<glyph unicode="^" horiz-adv-x="1327" d="M690 1866q68 -127 134 -256t134 -256h-167l-144 203q-48 -51 -100.5 -101.5t-99.5 -101.5h-167q102 127 205 256t205 256z" />
<glyph unicode="_" horiz-adv-x="1694" d="M1397 0h-1131l31 229h1130z" />
<glyph unicode="`" horiz-adv-x="564" d="M144 1729q40 -94 73.5 -187.5t73.5 -187.5h-167q-56 94 -106 188.5t-105 186.5h231z" />
<glyph unicode="a" d="M175 529q17 110 75 211.5t145.5 178t198 121.5t228.5 45q76 0 137 -22t106.5 -49t69.5 -52.5t24 -34.5q6 32 14 65t14 68h194l-114 -836h214l-31 -224h-422l10 57q3 13 3 27.5t2 28.5q-5 -8 -33.5 -31t-76.5 -47t-116 -42t-150 -18q-119 0 -217.5 43.5t-163.5 120 t-96 176.5t-15 214zM413 531q-20 -138 59 -233t226 -95q73 0 136.5 25.5t114.5 69.5t83.5 105t41.5 128q19 141 -59.5 233.5t-226.5 92.5q-73 0 -136.5 -24t-114.5 -68.5t-83.5 -103.5t-40.5 -130z" />
<glyph unicode="b" d="M132 224h216l234 1672h-186l30 224h421l-151 -1097q-12 -23 -22 -44t-21 -43q5 8 39 33.5t85 51t117 45t141 19.5q119 0 216 -43.5t163.5 -120t96 -177t13.5 -213.5q-17 -113 -75 -214.5t-144 -178t-196.5 -120t-229.5 -43.5q-81 0 -145.5 18t-106.5 42t-64.5 47 t-25.5 31q-3 -14 -3 -28.5t-3 -27.5l-8 -57h-421zM1286 531q19 141 -60 233.5t-226 92.5q-73 0 -136.5 -24t-114.5 -68.5t-83.5 -103.5t-40.5 -130q-19 -138 59.5 -233t224.5 -95q74 0 138 25.5t115 69.5t83.5 105t40.5 128z" />
<glyph unicode="c" horiz-adv-x="1121" d="M1035 97q-81 -57 -175 -89.5t-196 -32.5q-119 0 -215 43.5t-162 120t-97 176.5t-15 216q17 113 75 214.5t145.5 177t196.5 119t228 43.5q105 0 191 -32.5t151 -89.5l-48 -327h-210l29 189q-68 32 -148 32q-73 0 -136.5 -24t-114.5 -68.5t-83.5 -103.5t-40.5 -130 q-19 -138 59.5 -233t226.5 -95q124 0 220 72z" />
<glyph unicode="d" d="M1038 57q3 13 3 27.5t2 28.5q-5 -8 -33.5 -31t-76.5 -47t-116 -42t-150 -18q-119 0 -217.5 43.5t-163.5 120t-96 178t-15 214.5q17 113 75 213.5t145.5 177t198 120t228.5 43.5q71 0 131.5 -19.5t106 -45t71 -51t28.5 -33.5q-3 22 -7.5 43t-7.5 44l123 873h-188l32 224 h421l-265 -1896h214l-31 -224h-422zM413 531q-20 -138 59 -233t226 -95q73 0 136.5 25.5t114.5 69.5t83.5 105t41.5 128q19 141 -59.5 233.5t-226.5 92.5q-73 0 -136.5 -24t-114.5 -68.5t-83.5 -103.5t-40.5 -130z" />
<glyph unicode="e" horiz-adv-x="1270" d="M785 857q-143 0 -245.5 -86.5t-126.5 -217.5q140 49 279 98.5t277 97.5q-32 49 -78 78.5t-106 29.5zM1249 615q-200 -70 -401 -140.5t-404 -140.5q35 -59 99 -95t153 -36q64 0 122 24t104 67q32 -43 61 -85t60 -85q-81 -70 -176.5 -109.5t-202.5 -39.5q-119 0 -215 43.5 t-162 120t-97 176.5t-15 216q17 113 75 214.5t145.5 177t196.5 119t228 43.5q87 0 162 -35.5t130 -97.5t90.5 -148t46.5 -189z" />
<glyph unicode="f" horiz-adv-x="949" d="M130 224h172l86 607h-173l31 229h169l57 401q22 159 91.5 280.5t172.5 204.5t233.5 127t276.5 49l-30 -223q-198 -11 -338 -124t-171 -322l-57 -393h334l-32 -229h-332l-86 -607h224l-32 -224h-627z" />
<glyph unicode="g" d="M1283 1060h410l-31 -224h-214l-143 -1006q-16 -113 -72.5 -210t-143 -169.5t-194 -115t-226.5 -42.5q-127 0 -238.5 55.5t-187.5 114.5l181 192q51 -43 121 -81t153 -38q73 0 138 25.5t114.5 69t83.5 105t42 132.5l27 189q8 11 15 24t15 27q-11 -14 -42 -35.5t-79.5 -43 t-110.5 -36.5t-138 -15q-119 0 -217.5 43.5t-164 118.5t-96.5 175t-13 214q16 110 74 211.5t146 178t198 121.5t229 45q76 0 136.5 -22t105.5 -49t69 -52.5t24 -34.5q6 32 15 65t14 68zM509 531q-19 -138 59.5 -233t225.5 -95q73 0 137 25.5t115 69.5t83.5 105t40.5 128 q20 141 -59 233.5t-226 92.5q-74 0 -137.5 -24t-114.5 -68.5t-83 -103.5t-41 -130z" />
<glyph unicode="h" horiz-adv-x="1638" d="M944 224h218l59 437q6 76 -35.5 131t-147.5 61q-73 0 -144.5 -25t-128 -70.5t-95.5 -107.5t-50 -135l-40 -291h178l-32 -224h-627l31 224h215l235 1672h-216l32 224h449l-170 -1204l-25 -128q81 138 210 213t291 84q167 0 251 -88t70 -228l-75 -545h175l-32 -224h-626z " />
<glyph unicode="i" horiz-adv-x="825" d="M130 224h198l85 612h-198l31 224h433l-116 -836h195l-32 -224h-627zM477 1470q9 65 60 107.5t107 42.5q54 0 93.5 -42.5t31.5 -107.5q-11 -65 -62 -106.5t-105 -41.5q-57 0 -96.5 41.5t-28.5 106.5z" />
<glyph unicode="j" horiz-adv-x="598" d="M167 1060h402l-151 -1060q-22 -172 -100 -300.5t-194 -211.5l-138 175q79 57 131.5 142t66.5 203l118 828h-167zM370 1470q8 65 59 107.5t108 42.5q54 0 93 -42.5t31 -107.5t-59 -106.5t-105 -41.5q-57 0 -96 41.5t-31 106.5z" />
<glyph unicode="k" horiz-adv-x="1489" d="M853 224h32q-74 113 -136 229l-156 -131l-13 -98h178l-32 -224h-627l31 224h215l235 1672h-187l31 224h421l-214 -1524l291 240h-105l30 224h569l-30 -224h-176q-70 -56 -138.5 -115.5t-135.5 -116.5q53 -96 110 -190.5t113 -189.5h262l-30 -224h-569z" />
<glyph unicode="l" horiz-adv-x="825" d="M130 224h215l235 1672h-187l31 224h421l-265 -1896h178l-32 -224h-627z" />
<glyph unicode="m" horiz-adv-x="2457" d="M1764 224h215l59 437q6 76 -35.5 131t-149.5 61q-73 0 -143.5 -25t-127 -70.5t-95.5 -107.5t-52 -135l-38 -291h178l-32 -224h-627l31 224h215l59 437q6 76 -35.5 131t-147.5 61q-73 0 -144.5 -25t-128 -70.5t-95.5 -107.5t-50 -135l-40 -291h178l-32 -224h-627l31 224 h215l84 612h-186l32 224h392l-3 -25q-6 -68 -7 -123t-7 -124q79 135 209 213t292 84q156 0 240 -77.5t81 -204.5q82 130 211 203t283 79q167 0 252 -88t71 -228l-75 -545h178l-32 -224h-628z" />
<glyph unicode="n" horiz-adv-x="1638" d="M944 224h218l59 437q6 76 -35.5 131t-147.5 61q-73 0 -144.5 -25t-128 -70.5t-95.5 -107.5t-50 -135l-40 -291h178l-32 -224h-627l31 224h215l84 612h-186l32 224h392l-3 -25q-6 -68 -7 -123t-7 -124q76 135 212 216t289 81q167 0 251 -88t70 -228l-75 -545h175l-32 -224 h-626z" />
<glyph unicode="o" horiz-adv-x="1330" d="M175 531q17 113 75 214.5t145.5 177t196.5 119t228 43.5q118 0 215.5 -43.5t164.5 -119t96.5 -177t11.5 -214.5q-16 -116 -74 -216t-144.5 -176.5t-197 -120t-228.5 -43.5q-119 0 -215 43.5t-162 120t-97 176.5t-15 216zM410 529q-8 -68 8.5 -127.5t55 -103.5t93.5 -69.5 t123 -25.5t131.5 25.5t114.5 69.5t84.5 103.5t42.5 127.5q8 67 -8.5 126.5t-55.5 105t-95.5 71t-123.5 25.5q-68 0 -130 -25.5t-113 -71t-85 -105t-42 -126.5z" />
<glyph unicode="p" horiz-adv-x="1548" d="M22 -483h191l186 1319h-215l37 224h404q-8 -65 -10 -133q3 9 37.5 35.5t86.5 53.5t119 48t140 21q118 0 215.5 -43.5t164.5 -120t96.5 -177t14.5 -213.5q-17 -113 -74.5 -214.5t-145.5 -178t-198.5 -120t-228.5 -43.5q-79 0 -139.5 16.5t-103.5 39.5t-66.5 44.5 t-28.5 32.5q5 -14 9.5 -27t9.5 -27l-76 -537h203l-28 -224h-625zM1252 531q19 141 -59.5 233.5t-226.5 92.5q-73 0 -136.5 -24t-114.5 -68.5t-83.5 -103.5t-40.5 -130q-11 -67 4 -128t53.5 -105t95 -69.5t130.5 -25.5q73 0 136.5 25.5t114.5 69.5t83.5 105t43.5 128z" />
<glyph unicode="q" horiz-adv-x="1556" d="M814 -483h214l75 537q5 14 14.5 27t18.5 27q-9 -11 -41 -32.5t-80.5 -44.5t-113.5 -39.5t-141 -16.5q-118 0 -215.5 43.5t-164.5 120t-96.5 178t-11.5 214.5q16 113 74 213.5t146 177t198 120t229 43.5q73 0 134 -21t104.5 -48t69 -53.5t27.5 -35.5q6 32 15 65t14 68h421 l-31 -224h-225l-185 -1319h178l-31 -224h-628zM509 531q-19 -138 59.5 -233t225.5 -95q73 0 137 25.5t115 69.5t83.5 105t40.5 128q20 141 -59 233.5t-226 92.5q-74 0 -137.5 -24t-114.5 -68.5t-83 -103.5t-41 -130z" />
<glyph unicode="r" horiz-adv-x="1044" d="M130 224h215l84 612h-186l32 224h392l-3 -25q-6 -68 -7 -123t-7 -124q43 70 103.5 125.5t122.5 94t120 58t101 19.5l-48 -232q-84 0 -159.5 -25t-132 -70.5t-91.5 -107.5t-46 -135l-40 -291h178l-32 -224h-627z" />
<glyph unicode="s" horiz-adv-x="937" d="M391 339l-16 -110q32 -14 64.5 -18t80.5 -4q3 0 21.5 1.5t42 11t45 29.5t29.5 59q11 51 -17 78t-74.5 45.5t-104.5 36.5t-105 50.5t-72.5 91.5t-9.5 159q11 87 53 147t98.5 98t118.5 54.5t111 16.5q27 0 67 -5.5t81 -19.5t79.5 -37t63.5 -57l-38 -246h-208l19 122 q-42 14 -84 15q-62 0 -94.5 -27t-32.5 -72q3 -35 35.5 -55.5t80 -40.5t100 -45.5t95 -63.5t65 -96t11.5 -147q-6 -40 -28.5 -95.5t-69 -109.5t-123 -90.5t-189.5 -36.5q-105 0 -198 27t-142 89l35 245h210z" />
<glyph unicode="t" horiz-adv-x="946" d="M580 1750h234l-96 -690h277l-32 -229h-276l-85 -607h212l-32 -224h-445l116 831h-238l31 229h237z" />
<glyph unicode="u" horiz-adv-x="1610" d="M248 1060h421l-89 -661q-6 -76 35 -131t148 -61q73 0 144 25t128 70.5t96 107.5t50 135l40 291h-186l30 224h421l-118 -863h175l-28 -197h-410l20 144l26 128q-76 -135 -212 -216t-289 -81q-167 0 -252 87.5t-70 228.5l76 545h-186z" />
<glyph unicode="v" horiz-adv-x="1650" d="M254 1060h628l-32 -224h-146q56 -124 107 -248t74 -249q56 125 139.5 249t173.5 248h-170l32 224h647l-32 -224h-234q-153 -229 -306.5 -452t-306.5 -449q-94 226 -185.5 450.5t-181.5 450.5h-237z" />
<glyph unicode="w" horiz-adv-x="2344" d="M1798 1060h605l-32 -224h-214q-144 -229 -290 -452t-290 -449l-280 761l-488 -761q-85 226 -169 450.5t-165 450.5h-251l30 224h585l-30 -224h-100q46 -124 88 -247t68 -250q46 97 102 189l112 184q19 32 38 63t39 61h-144l31 224h627l-31 -224h-161q46 -124 88 -247 t68 -250q59 127 133.5 250t157.5 247h-159z" />
<glyph unicode="x" horiz-adv-x="1486" d="M246 1060h628l-32 -224h-65l99 -167l141 167h-76l32 224h562l-31 -224h-207l-299 -347q40 -68 79 -134.5t82 -130.5h260l-31 -224h-628l31 224h71q-24 40 -47.5 76.5t-45.5 74.5q-32 -40 -67 -76.5t-66 -74.5h57l-32 -224h-562l31 224h218q73 86 151 172.5t154 174.5 q-40 65 -79.5 132.5t-79.5 132.5h-279z" />
<glyph unicode="y" horiz-adv-x="1742" d="M291 -483h254q76 121 154 242.5t158 240.5q-76 213 -152.5 419t-153.5 417h-238l32 224h628l-32 -224h-150q62 -156 122 -312.5t90 -313.5q73 158 176.5 315t208.5 311h-175l30 224h648l-31 -224h-232q-212 -334 -424 -660t-424 -659h139l-32 -224h-628z" />
<glyph unicode="z" horiz-adv-x="1228" d="M1184 391l-54 -391h-1031l31 229q99 79 186.5 154t174 148t174 150t185.5 155h-602l46 323h210l-15 -99h724l-32 -229q-102 -79 -189.5 -154t-172.5 -148.5t-172 -147t-186 -152.5h491l24 162h208z" />
<glyph unicode="{" horiz-adv-x="903" d="M246 723l34 229q68 3 117.5 41.5t82 94.5t50.5 123t26 123l64 441q16 129 52.5 199t86.5 99.5t110.5 32.5t128.5 3h178l-32 -229h-124q-43 0 -73.5 -11.5t-51.5 -44.5t-37 -89t-27 -147l-51 -364q-11 -87 -38 -151t-61 -109t-70.5 -74.5t-68.5 -47.5q25 -17 54 -46.5 t50 -76.5t29.5 -109t-3.5 -146l-50 -365q-13 -91 -14 -149t12 -89t40 -42t69 -11h124l-33 -229h-178q-65 0 -124.5 3t-102 32.5t-59.5 97t0 201.5l59 429q9 57 9 123t-16.5 122.5t-55.5 94.5t-106 41z" />
<glyph unicode="|" horiz-adv-x="765" d="M257 -656l368 2635h237l-368 -2635h-237z" />
<glyph unicode="}" horiz-adv-x="903" d="M1014 952l-33 -229q-67 -3 -115.5 -41t-82.5 -94.5t-52.5 -122.5t-26.5 -123l-60 -429q-16 -132 -53.5 -200.5t-87.5 -98t-111 -32.5t-130 -3h-178l35 229h124q43 0 72.5 11t51 42t35 89t27.5 149l51 365q11 84 39.5 147.5t62 109t71 75t65.5 46.5q-25 16 -52 46.5 t-48.5 75.5t-31 108.5t1.5 151.5l51 364q11 91 14 147t-9.5 89t-39.5 44.5t-70 11.5h-124l30 229h180q64 0 125 -3t103 -32.5t59.5 -98t-0.5 -200.5l-62 -441q-9 -56 -9 -123t17.5 -123t55.5 -94.5t105 -41.5z" />
<glyph unicode="~" horiz-adv-x="1381" d="M777 1359q-37 46 -66 59.5t-69 13.5t-94 -23t-76 -106q-32 2 -63 3.5t-61 4.5q11 57 42 103.5t72.5 79t87.5 49t89 16.5q65 0 114.5 -24.5t88.5 -67.5q37 -46 68 -59.5t71 -13.5q19 0 43.5 5.5t48.5 19t44.5 39.5t29.5 66l128 -9q-11 -56 -42.5 -103t-72.5 -78t-88 -47.5 t-88 -16.5q-65 0 -116 24.5t-91 64.5z" />
<glyph unicode="&#xa1;" horiz-adv-x="564" d="M585 1526q54 0 92 -42.5t27 -107.5q-8 -65 -58 -105.5t-104 -40.5q-56 0 -95.5 40.5t-31.5 105.5q14 65 64 107.5t106 42.5zM399 1057h234l-231 -1650h-235z" />
<glyph unicode="&#xa2;" horiz-adv-x="1087" d="M944 275l116 -178q-68 -49 -137.5 -76t-156.5 -40l-22 -173h-238l25 192q-84 25 -151 76t-111.5 120.5t-63.5 155t-5 179.5t56.5 178.5t106 155.5t146 122t173.5 76l25 175h237l-22 -159q81 -8 146 -39t119 -77l-3 -3q-5 -22 -6.5 -40.5t-4.5 -40.5l-35 -243h-208l25 189 q-14 9 -31 13t-37 9l-89 -637q40 8 77 25.5t69 39.5zM435 531q-14 -96 21 -172t110 -119l81 577q-84 -40 -141.5 -114.5t-70.5 -171.5z" />
<glyph unicode="&#xa3;" horiz-adv-x="1621" d="M1546 0h-1465l32 229h124q46 0 75.5 9.5t51 40.5t34 86.5t26.5 146.5l37 259h-184l31 229h183l60 413q27 195 204.5 286.5t474.5 91.5q93 0 165 -22t124.5 -62t87.5 -90.5t55 -106.5l-195 -105q-11 19 -25.5 46t-43 52.5t-76 43t-127.5 17.5q-192 0 -293.5 -40 t-121.5 -173l-51 -351h331l-32 -229h-330l-45 -310q-11 -81 -27 -136.5t-63 -95.5h777l36 271q59 0 120 2t120 2z" />
<glyph unicode="&#xa4;" horiz-adv-x="1413" d="M548 1017q-14 -91 41 -154t145 -63q46 0 88.5 17t76.5 46.5t58 69.5t30 84q11 91 -44.5 156t-144.5 65q-91 0 -163.5 -65t-86.5 -156zM310 1020q17 121 92 221q-14 16 -28.5 33.5t-28.5 33.5l189 167l59 -67q57 24 113.5 41.5t118.5 17.5t116 -16t102 -43l76 67l144 -167 l-71 -62q49 -105 32 -226q-22 -133 -99 -229l59 -68l-189 -167q-17 17 -32.5 35.5t-32.5 36.5q-108 -57 -232 -57q-118 0 -212 54l-79 -72l-145 167l77 68q-22 51 -31 109t2 123z" />
<glyph unicode="&#xa5;" horiz-adv-x="2228" d="M1631 283h-331l-8 -59h205l-30 -224h-685l32 224h189l9 59h-325l31 229h325l31 232h-325l33 229h202l-353 782h-286l30 224h685l-32 -224h-112q79 -172 157 -344.5t157 -345.5l19 -87h3l45 87l507 690h-111l31 224h684l-32 -224h-284q-143 -197 -285.5 -392.5 t-285.5 -389.5h203l-34 -229h-328l-30 -232h330z" />
<glyph unicode="&#xa6;" horiz-adv-x="607" d="M432 -658h-237l139 989h237zM661 989h-237l142 990h237z" />
<glyph unicode="&#xa7;" horiz-adv-x="1413" d="M709 1017q-11 -76 34 -128.5t122 -52.5q73 0 134 52.5t72 128.5q11 73 -34 127t-121 54q-73 0 -134.5 -52.5t-72.5 -128.5zM690 418q-59 124 -94.5 198t-52.5 112t-20 50.5t-3 19.5q-27 64 -30.5 139t19 148.5t68 138.5t110.5 113q91 65 209 76q-22 48 -43.5 96t-43.5 99 q-40 94 -47 160t9.5 115.5t55 83.5t89.5 62l114 62t114 63q43 -96 91 -199q-32 -13 -60 -30.5t-59 -31.5q-37 -22 -57.5 -42t-28 -48t2.5 -66t35 -98h3q48 -107 96.5 -210t95.5 -210q31 -65 32.5 -139t-21 -146t-69 -137.5t-113.5 -109.5q-92 -65 -210 -83q43 -96 91 -197 q43 -94 49 -161.5t-10.5 -117t-54.5 -85t-89 -62.5q-57 -32 -112 -61.5t-112 -60.5q-22 49 -46 99t-47 99q31 16 61 32l60 32q37 20 58.5 42.5t23 55t-14 79.5t-49.5 120z" />
<glyph unicode="&#xa8;" horiz-adv-x="1044" d="M628 1470q8 65 59 107.5t107 42.5q53 0 93 -42.5t32 -107.5q-11 -65 -60.5 -106.5t-103.5 -41.5q-57 0 -97.5 41.5t-29.5 106.5zM159 1470q8 65 59 107.5t108 42.5q54 0 93 -42.5t31 -107.5q-11 -65 -61 -106.5t-103 -41.5q-57 0 -97.5 41.5t-29.5 106.5z" />
<glyph unicode="&#xa9;" horiz-adv-x="2241" d="M1144 418q132 0 254.5 48.5t219.5 133t160.5 200.5t84.5 252q19 138 -13.5 253.5t-104.5 200.5t-180.5 133.5t-242.5 48.5q-132 0 -255 -48.5t-219 -133.5t-161 -200.5t-85 -253.5q-20 -136 12.5 -252t106 -200.5t182.5 -133t241 -48.5zM1130 313q-153 0 -280 56.5 t-214.5 156t-128.5 233.5t-18 293q22 161 100 296.5t193.5 234.5t258.5 153.5t296 54.5t280 -54.5t215 -153.5t127 -234.5t17 -296.5q-22 -159 -100 -293t-192.5 -233.5t-257.5 -156t-296 -56.5zM1413 1311l11 80q-65 28 -130 28q-73 0 -140 -28.5t-121.5 -78t-91.5 -114.5 t-45 -138q-11 -73 7.5 -138t59 -113.5t100 -76.5t132.5 -28q94 0 181 48l48 -85q-56 -32 -117 -48.5t-126 -16.5q-94 0 -172.5 36.5t-131 99t-78 145.5t-11.5 177q14 96 62 179t118 146t159 98t181 35q127 0 227 -62l-20 -145h-102z" />
<glyph unicode="&#xaa;" horiz-adv-x="1653" d="M245.24 1005.54q12.2637 79.3369 54.1035 152.545q41.8398 73.207 104.96 128.383t142.832 87.6318t164.834 32.4561q54.8242 0 98.8281 -15.8672t76.8271 -35.3418q32.8223 -19.4736 50.1348 -37.8652q17.3135 -18.3926 17.3135 -24.8838 q4.32812 23.0801 10.0986 46.8818q5.77148 23.8018 10.0996 49.0449h139.946l-82.2363 -602.967h154.374l-22.3623 -161.561h-304.42l7.21387 41.1113q2.16406 9.37598 2.16406 19.835q0 10.458 1.44238 20.5557q-3.60645 -5.77051 -24.166 -22.3594t-55.1855 -33.8984 q-34.626 -17.3105 -83.6787 -30.293q-49.0537 -12.9824 -108.206 -12.9824q-85.8438 0 -156.899 31.374q-71.0557 31.375 -117.944 86.5508q-46.8896 55.1758 -69.252 127.301q-22.3633 72.125 -10.8213 154.349zM416.928 1006.99q-14.4277 -99.5332 42.5605 -168.052 q56.9893 -68.5195 163.031 -68.5195q52.6602 0 98.4678 18.3926q45.8066 18.3916 82.5967 50.127q36.791 31.7344 60.2354 75.7314q23.4443 43.9961 29.9365 92.3203q13.7061 101.696 -42.9219 168.412q-56.627 66.7158 -163.391 66.7158q-52.6602 0 -98.4678 -17.3096 q-45.8076 -17.3105 -82.5977 -49.4062t-60.2344 -74.6494q-23.4453 -42.5537 -29.2158 -93.7627z" />
<glyph unicode="&#xab;" horiz-adv-x="1697" d="M1297 218l-421 457q138 116 274 227.5t274 227.5l-36 -265q-54 -48 -106 -95t-106 -95q40 -48 79 -94.5t79 -94.5zM814 218l-421 457q138 116 274 227.5t274 227.5l-37 -268q-57 -48 -107 -93.5t-104 -93.5q40 -48 79 -94.5t78 -94.5z" />
<glyph unicode="&#xac;" horiz-adv-x="1578" d="M1063 418l13 113h-779l25 170h1018l-40 -283h-237z" />
<glyph unicode="&#xad;" horiz-adv-x="847" d="M132 415l32 229h520l-31 -229h-521z" />
<glyph unicode="&#xae;" horiz-adv-x="2263" d="M1144 418q132 0 254.5 48.5t219.5 133t160.5 200.5t84.5 252q19 138 -13.5 253.5t-104.5 200.5t-180.5 133.5t-242.5 48.5q-132 0 -255 -48.5t-219 -133.5t-161 -200.5t-85 -253.5q-20 -136 12.5 -252t106 -200.5t182.5 -133t241 -48.5zM1130 313q-153 0 -280 56.5 t-214.5 156t-128.5 233.5t-18 293q22 161 100 296.5t193.5 234.5t258.5 153.5t296 54.5t280 -54.5t215 -153.5t127 -234.5t17 -296.5q-22 -159 -100 -293t-192.5 -233.5t-257.5 -156t-296 -56.5zM890 698h59l103 726h-60l14 105h283q45 0 98.5 -14.5t96 -45.5t68 -78.5 t17.5 -115.5q-14 -99 -74 -166.5t-158 -91.5l104 -319h128l-18 -105h-194l-138 419h-57h-57l-45 -314h156l-18 -105h-322zM1119 1116h119q59 0 98.5 15.5t65 38t38.5 51t19 54.5q8 59 -43 104t-135 45h-116z" />
<glyph unicode="&#xaf;" horiz-adv-x="1127" d="M240 1351l19 149h650l-19 -149h-650z" />
<glyph unicode="&#xb0;" horiz-adv-x="796" d="M410 1445q56 0 103 39.5t53 95.5q8 57 -27 97.5t-92 40.5q-56 0 -102 -40.5t-54 -97.5q-5 -56 28.5 -95.5t90.5 -39.5zM141 1583q8 59 37 110t74 89t101.5 61t115.5 23q119 0 188 -82t55 -201q-8 -59 -38 -111.5t-74 -90.5t-97 -59.5t-112 -21.5q-122 0 -194.5 82 t-55.5 201z" />
<glyph unicode="&#xb1;" horiz-adv-x="1480" d="M675 596l56 393h-389l31 230h390l57 394h237l-57 -394h391l-32 -230h-390l-55 -393h-239zM1260 283h-1017l32 229h1017z" />
<glyph unicode="&#xb2;" horiz-adv-x="1124" d="M412.408 636.103h228.913l18.2539 129.4h110.51l-34.5342 -242.503h-618.164q97.1895 86.4316 190.186 168.172t166.012 157.8q73.0146 76.0596 121.116 147.922t58.4619 137.55q6.41309 51.8594 -5.42676 87.9141q-11.8408 36.0547 -34.041 60.0088 q-22.2012 23.9541 -50.8154 35.0664q-28.6133 11.1123 -53.7744 11.1123q-52.7881 0 -89.2959 -18.2734q-36.5078 -18.2744 -59.2012 -44.6982q-22.6943 -26.4229 -34.7812 -55.5635q-12.0869 -29.1396 -14.5537 -51.8594q-12.334 -89.3945 34.5342 -145.205 l-80.9092 -71.6152q-21.2139 15.8047 -36.0137 41.7344q-14.8008 25.9297 -24.1748 55.8105q-9.37305 29.8809 -12.0869 61.2432q-2.71289 31.3623 1.2334 58.0322q8.38672 55.8105 34.2881 107.423q25.9004 51.6123 69.0684 90.6299t100.396 62.2314 q57.2275 23.2129 128.27 23.2129q63.6426 0 113.471 -23.707q49.8271 -23.707 81.6484 -63.7129q31.8213 -40.0049 45.8818 -92.1113q14.0596 -52.1064 6.16602 -110.88q-9.86621 -69.1455 -43.4141 -134.34t-82.3887 -129.647q-48.8418 -64.4541 -109.771 -126.438 q-60.9277 -61.9844 -125.063 -124.709z" />
<glyph unicode="&#xb3;" horiz-adv-x="1184" d="M282.633 983.021l241.77 336.331h-155.424l-8.3877 -65.4932h-110.03l25.1641 179.737h458.87l-247.198 -330.914q42.9268 -17.2354 77.2188 -44.3184q34.292 -27.084 57.4824 -63.0312q23.1895 -35.9482 32.0713 -80.5127q8.88184 -44.5654 1.97363 -94.793 q-7.89453 -62.5391 -40.7061 -117.691t-80.4258 -96.2705t-106.083 -64.5088t-121.131 -23.3906q-66.6104 0 -119.898 26.8379t-89.3066 71.6484l96.2139 79.2822q20.7236 -30.5312 54.2754 -47.7666q33.5518 -17.2344 75.4912 -17.2344q38.9795 0 75.4912 15.2656 q36.5127 15.2646 65.624 40.8711q29.1104 25.6064 49.3398 59.8311q20.2305 34.2236 25.6582 73.126q5.42676 38.4092 -4.93457 72.8799q-10.3613 34.4697 -32.8115 59.0918q-22.4502 24.6211 -54.2754 39.3945q-31.8242 14.7725 -70.8037 14.7725 q-50.3271 0.492188 -95.2275 -23.1445z" />
<glyph unicode="&#xb4;" horiz-adv-x="774" d="M283 1354q76 94 152.5 188.5t152.5 186.5h237l-375 -375h-167z" />
<glyph unicode="&#xb5;" horiz-adv-x="1556" d="M1087 1060h423l-119 -863h175l-29 -197h-410l20 144l26 128q-76 -135 -213.5 -216t-290.5 -81q-67 0 -127 17l-76 -561h-234l194 1405h-186l32 224h421l-91 -661q-6 -76 35.5 -131t147.5 -61q73 0 144 25t128 70.5t96 107.5t50 135l40 291h-186z" />
<glyph unicode="&#xb6;" d="M803 0h-234l165 1195q-96 0 -175 36t-132.5 98t-77 146t-10.5 181q14 97 62.5 181.5t119 147t159.5 99t185 36.5h890l-29 -198h-194l-243 -1725h195l-25 -197h-431l269 1922h-226z" />
<glyph unicode="&#xb7;" horiz-adv-x="474" d="M94 796q11 65 61.5 108t106.5 43q54 0 94 -42t28 -109q-8 -65 -58.5 -105.5t-104.5 -40.5q-57 0 -96 40.5t-31 105.5z" />
<glyph unicode="&#xb8;" horiz-adv-x="1276" d="M620 0h143l-3 -19q-5 -40 3 -64.5t24 -39.5t34 -25.5t36 -23.5q54 -46 69 -102.5t7 -127.5q-8 -59 -35 -114t-70 -97.5t-102 -68t-133 -25.5q-96 0 -169 52.5t-96 160.5q35 17 69.5 33.5t68.5 34.5q9 -46 41.5 -75.5t88.5 -29.5q68 0 112 45.5t52 112.5q9 57 -16.5 89.5 t-58 58t-59.5 53.5t-22 75z" />
<glyph unicode="&#xb9;" horiz-adv-x="771" d="M40.2637 625.045h101.772l90.2607 636.67h-88.8789l14.7363 105.346h197.559l-104.535 -742.016h103.154l-13.8154 -103.045h-314.068z" />
<glyph unicode="&#xba;" horiz-adv-x="1324" d="M258.219 1006.99q12.2617 81.501 54.0947 154.708q41.832 73.207 104.941 127.662q63.1104 54.4541 141.727 85.8291q78.6162 31.374 164.445 31.374q85.1084 0 155.43 -31.374q70.3223 -31.375 118.646 -85.8291q48.3242 -54.4551 69.6006 -127.662 q21.2773 -73.207 8.29492 -154.708q-11.54 -83.666 -53.373 -155.791q-41.832 -72.125 -104.221 -127.301t-142.087 -86.5508q-79.6982 -31.374 -164.806 -31.374q-85.8291 0 -155.069 31.374q-69.2402 31.375 -116.844 86.5508q-47.6025 55.1758 -69.9609 127.301 q-22.3594 72.125 -10.8193 155.791zM427.714 1005.54q-5.77051 -49.0459 6.12988 -91.96q11.9014 -42.915 39.6689 -74.6494q27.7686 -31.7354 67.4375 -50.127q39.6689 -18.3926 88.7139 -18.3926t94.8447 18.3926q45.7998 18.3916 82.583 50.127 q36.7842 31.7344 60.9463 74.6494q24.1621 42.9141 30.6533 91.96q5.76953 48.3232 -6.13086 91.2383q-11.9004 42.9141 -40.0293 75.7314q-28.1289 32.8164 -68.8799 51.209q-40.751 18.3916 -89.0742 18.3916q-49.0459 0 -93.7627 -18.3916 q-44.7178 -18.3926 -81.502 -51.209q-36.7842 -32.8174 -61.3066 -75.7314q-24.5225 -42.915 -30.292 -91.2383z" />
<glyph unicode="&#xbb;" horiz-adv-x="1697" d="M367 486q54 48 105 95t105 94q-40 48 -78 95t-78 95l37 265q105 -116 209 -227.5t209 -227.5l-545 -457zM850 486q54 48 105 95t105 94q-40 48 -78 93.5t-78 93.5l37 268q105 -116 209 -227.5t209 -227.5l-545 -457z" />
<glyph unicode="&#xbc;" horiz-adv-x="2735" d="M573 -54q274 537 542.5 1067t543.5 1067h237q-274 -537 -544 -1067t-545 -1067h-234zM1431.87 166.811h157.512l31.2051 218.938h-591.413l909.409 999.374l-118.134 -828.84h204.319l-23.7754 -170.534h-204.319l-30.4629 -218.938h173.858l-23.0332 -166.811h-508.941z M1688.2 869.053l-283.818 -312.77h239.982zM172.283 627.977h156.888l139.141 982.248h-137.011l22.7168 162.525h304.547l-161.147 -1144.77h159.018l-21.2969 -158.977h-484.151z" />
<glyph unicode="&#xbd;" horiz-adv-x="3020" d="M172.283 627.977h156.888l139.141 982.248h-137.011l22.7168 162.525h304.547l-161.147 -1144.77h159.018l-21.2969 -158.977h-484.151zM1502.61 162.525h328.657l26.208 185.945h158.662l-49.582 -348.471h-887.517q139.538 124.2 273.055 241.658 q133.518 117.459 238.348 226.755t173.891 212.561q69.0605 103.264 83.9355 197.655q9.20801 74.5205 -7.79199 126.33q-16.999 51.8096 -48.873 86.2305q-31.874 34.4219 -72.9561 50.3896q-41.083 15.9688 -77.207 15.9688q-75.7891 0 -128.204 -26.2588 q-52.415 -26.2598 -84.998 -64.2295q-32.582 -37.9697 -49.9355 -79.8438q-17.3535 -41.873 -20.8955 -74.5205q-17.708 -128.458 49.582 -208.656l-116.163 -102.909q-30.458 22.7109 -51.707 59.9717q-21.249 37.2598 -34.707 80.1973q-13.458 42.9385 -17.3545 88.0049 q-3.89551 45.0674 1.77148 83.3916q12.041 80.1982 49.2275 154.364q37.1865 74.165 99.1641 130.232t144.142 89.4248q82.1641 33.3564 184.161 33.3564q91.3721 0 162.912 -34.0664t117.226 -91.5537q45.6865 -57.4863 65.873 -132.362q20.1875 -74.875 8.85449 -159.331 q-14.167 -99.3604 -62.332 -193.043t-118.288 -186.301t-157.6 -181.688t-179.558 -179.203zM573 -54q274 537 542.5 1067t543.5 1067h237q-274 -537 -544 -1067t-545 -1067h-234z" />
<glyph unicode="&#xbe;" horiz-adv-x="3605" d="M539.286 1161.22l378.805 528.342h-243.518l-13.1416 -102.884h-172.396l39.4268 282.35h718.956l-387.309 -519.832q67.2578 -27.0752 120.986 -69.6211q53.7275 -42.5449 90.0625 -99.0156q36.334 -56.4697 50.249 -126.477q13.916 -70.0068 3.09277 -148.91 q-12.3691 -98.2422 -63.7783 -184.881t-126.011 -151.23q-74.6016 -64.5928 -166.21 -101.337q-91.6094 -36.7441 -189.789 -36.7441q-104.365 0 -187.856 42.1592q-83.4922 42.1592 -139.926 112.553l150.749 124.543q32.4688 -47.96 85.0371 -75.0352 q52.5693 -27.0742 118.28 -27.0742q61.0723 0 118.28 23.9805q57.207 23.9805 102.818 64.2051q45.6113 40.2256 77.3066 93.9873q31.6963 53.7627 40.2002 114.874q8.50391 60.3379 -7.73145 114.486q-16.2344 54.1494 -51.4092 92.8271q-35.1748 38.6787 -85.0371 61.8848 q-49.8633 23.207 -110.937 23.207q-78.8525 0.773438 -149.202 -36.3574zM1111 -54q274 537 542.5 1067t543.5 1067h237q-274 -537 -544 -1067t-545 -1067h-234zM1849.87 166.811h157.512l31.2051 218.938h-591.413l909.409 999.374l-118.134 -828.84h204.319 l-23.7754 -170.534h-204.319l-30.4629 -218.938h173.858l-23.0332 -166.811h-508.941zM2106.2 869.053l-283.818 -312.77h239.982z" />
<glyph unicode="&#xbf;" horiz-adv-x="1276" d="M926.024 -34.9053q47.9971 -19.998 98.9941 -38.4971q50.9961 -18.499 99.9932 -39.498q-27.998 -61.9961 -76.4951 -136.491t-123.492 -139.991t-179.989 -110.494q-104.993 -44.9971 -247.984 -44.9971q-115.993 0 -211.987 43.498q-95.9941 43.4971 -159.49 118.992 t-92.9941 175.489q-29.499 99.9941 -13.5 212.987q21.999 158.99 112.493 275.983q90.4951 116.992 235.486 213.986q42.9971 27.998 91.9941 57.4971q48.9971 29.498 94.4941 67.4951q45.4971 37.998 77.9951 90.4951t43.4971 128.492l31.998 219.986h236.986 l-39.998 -273.983q-10.999 -90.9941 -49.4971 -146.991q-38.4971 -55.9961 -90.4941 -99.4932q-51.9971 -43.498 -118.993 -81.9951q-66.9961 -38.498 -136.991 -89.4951q-112.993 -75.9951 -173.989 -166.489q-60.9961 -90.4951 -74.9961 -195.488 q-18.998 -137.991 53.9971 -229.986q72.9951 -91.9941 214.987 -91.9941q158.99 0 247.484 71.4961q88.4951 71.4951 150.491 209.486zM893.026 1524q55.9961 0 95.4941 -40.4971q39.4971 -40.498 31.498 -105.494q-10.999 -64.9961 -61.9961 -107.993t-107.993 -42.9971 q-53.9971 0 -92.9951 41.9971q-38.9971 41.9971 -27.998 108.993q8 64.9961 58.9961 105.494q50.9971 40.4971 104.994 40.4971z" />
<glyph unicode="&#xc0;" horiz-adv-x="2225" d="M130 224h232q259 466 519 922t521 923q133 -467 262.5 -923t263.5 -922h232l-32 -224h-628l32 224h158q-40 140 -79 279t-79 279h-623l-313 -558h162l-32 -224h-627zM1343 1456l-14 92q-3 -5 -10.5 -19t-13.5 -32q-11 -19 -19 -41q-45 -82 -91 -162q-40 -67 -80.5 -146.5 t-73.5 -141.5h429zM1328 2495q40 -94 73.5 -187.5t73.5 -187.5h-167q-56 94 -106 188.5t-105 186.5h231z" />
<glyph unicode="&#xc1;" horiz-adv-x="2225" d="M1340 2120q76 94 152.5 188.5t152.5 186.5h237l-375 -375h-167zM130 224h232q259 466 519 922t521 923q133 -467 262.5 -923t263.5 -922h232l-32 -224h-628l32 224h158q-40 140 -79 279t-79 279h-623l-313 -558h162l-32 -224h-627zM1343 1456l-14 92q-3 -5 -10.5 -19 t-13.5 -32q-11 -19 -19 -41q-45 -82 -91 -162q-40 -67 -80.5 -146.5t-73.5 -141.5h429z" />
<glyph unicode="&#xc2;" horiz-adv-x="2225" d="M1475 2632q68 -127 134 -256t134 -256h-167l-144 203q-48 -51 -100.5 -101.5t-99.5 -101.5h-167q102 127 205 256t205 256zM130 224h232q259 466 519 922t521 923q133 -467 262.5 -923t263.5 -922h232l-32 -224h-628l32 224h158q-40 140 -79 279t-79 279h-623l-313 -558 h162l-32 -224h-627zM1343 1456l-14 92q-3 -5 -10.5 -19t-13.5 -32q-11 -19 -19 -41q-45 -82 -91 -162q-40 -67 -80.5 -146.5t-73.5 -141.5h429z" />
<glyph unicode="&#xc3;" horiz-adv-x="2225" d="M1368 2219q-37 46 -66 59.5t-69 13.5t-94 -23t-76 -106q-32 2 -63 3.5t-61 4.5q11 57 42 103.5t72.5 79t87.5 49t89 16.5q65 0 114.5 -24.5t88.5 -67.5q37 -46 68 -59.5t71 -13.5q19 0 43.5 5.5t48.5 19t44.5 39.5t29.5 66l128 -9q-11 -56 -42.5 -103t-72.5 -78 t-88 -47.5t-88 -16.5q-65 0 -116 24.5t-91 64.5zM130 224h232q259 466 519 922t521 923q133 -467 262.5 -923t263.5 -922h232l-32 -224h-628l32 224h158q-40 140 -79 279t-79 279h-623l-313 -558h162l-32 -224h-627zM1343 1456l-14 92q-3 -5 -10.5 -19t-13.5 -32 q-11 -19 -19 -41q-45 -82 -91 -162q-40 -67 -80.5 -146.5t-73.5 -141.5h429z" />
<glyph unicode="&#xc4;" horiz-adv-x="2225" d="M1499 2290q8 65 59 107.5t107 42.5q53 0 93 -42.5t32 -107.5q-11 -65 -60.5 -106.5t-103.5 -41.5q-57 0 -97.5 41.5t-29.5 106.5zM1030 2290q8 65 59 107.5t108 42.5q54 0 93 -42.5t31 -107.5q-11 -65 -61 -106.5t-103 -41.5q-57 0 -97.5 41.5t-29.5 106.5zM130 224h232 q259 466 519 922t521 923q133 -467 262.5 -923t263.5 -922h232l-32 -224h-628l32 224h158q-40 140 -79 279t-79 279h-623l-313 -558h162l-32 -224h-627zM1343 1456l-14 92q-3 -5 -10.5 -19t-13.5 -32q-11 -19 -19 -41q-45 -82 -91 -162q-40 -67 -80.5 -146.5t-73.5 -141.5 h429z" />
<glyph unicode="&#xc5;" horiz-adv-x="2225" d="M1351 2363q-5 -40 16 -65t60 -25q40 0 71 25t37 65q5 40 -19 66.5t-63 26.5q-40 0 -68 -26.5t-34 -66.5zM1195 2365q6 51 32.5 95.5t65.5 78t85 53t97 19.5t92 -19.5t70.5 -53t42.5 -78t8 -95.5q-9 -51 -34.5 -94.5t-64 -77t-84.5 -53.5t-97 -20t-92 20t-70.5 53.5 t-44 77t-6.5 94.5zM130 224h232q259 466 519 922t521 923q133 -467 262.5 -923t263.5 -922h232l-32 -224h-628l32 224h158q-40 140 -79 279t-79 279h-623l-313 -558h162l-32 -224h-627zM1343 1456l-14 92q-3 -5 -10.5 -19t-13.5 -32q-11 -19 -19 -41q-45 -82 -91 -162 q-40 -67 -80.5 -146.5t-73.5 -141.5h429z" />
<glyph unicode="&#xc6;" horiz-adv-x="2195" d="M2049 1543l31 212h-492l-91 -647h606l-34 -223h-605l-91 -661h531l29 211h224l-59 -435h-990l105 747h-326q-73 -133 -148 -262t-148 -261h167l-32 -224h-627l31 224h226q248 440 494.5 876.5t495.5 878.5h989l-62 -436h-224zM1243 969l83 579q-62 -146 -148 -290 t-166 -289h231z" />
<glyph unicode="&#xc7;" horiz-adv-x="1723" d="M1673 1232l69 483q-133 62 -286 62q-162 0 -311.5 -62t-269.5 -171t-201 -253t-103 -304q-22 -162 19 -306t131 -249.5t221.5 -168.5t292.5 -63q207 0 402 105l102 -186q-119 -62 -242.5 -99t-253.5 -42q-5 -37 -2 -40q5 -54 37.5 -71t61.5 -39q54 -46 69 -102.5 t7 -127.5q-8 -59 -35 -114t-69 -97.5t-101.5 -68t-134.5 -25.5q-96 0 -169 52.5t-96 160.5l138 68q9 -46 41.5 -75.5t88.5 -29.5q68 0 112 45.5t52 112.5q9 57 -16.5 89.5t-58 58t-59.5 53.5t-22 75l13 80q-189 20 -342.5 104.5t-256 218.5t-148 309.5t-16.5 371.5 q27 209 133.5 394t261.5 322t350.5 217.5t403.5 80.5q144 0 269 -36.5t229 -104.5l-88 -628h-223z" />
<glyph unicode="&#xc8;" horiz-adv-x="1613" d="M130 224h158l216 1531h-159l30 224h1378l-63 -436h-223l30 212h-759l-91 -647h874l-35 -223h-873l-90 -661h799l29 211h224l-60 -435h-1416zM978 2495q40 -94 73.5 -187.5t73.5 -187.5h-167q-56 94 -106 188.5t-105 186.5h231z" />
<glyph unicode="&#xc9;" horiz-adv-x="1613" d="M130 224h158l216 1531h-159l30 224h1378l-63 -436h-223l30 212h-759l-91 -647h874l-35 -223h-873l-90 -661h799l29 211h224l-60 -435h-1416zM1130 2120q76 94 152.5 188.5t152.5 186.5h237l-375 -375h-167z" />
<glyph unicode="&#xca;" horiz-adv-x="1613" d="M130 224h158l216 1531h-159l30 224h1378l-63 -436h-223l30 212h-759l-91 -647h874l-35 -223h-873l-90 -661h799l29 211h224l-60 -435h-1416zM1196 2632q68 -127 134 -256t134 -256h-167l-144 203q-48 -51 -100.5 -101.5t-99.5 -101.5h-167q102 127 205 256t205 256z" />
<glyph unicode="&#xcb;" horiz-adv-x="1613" d="M130 224h158l216 1531h-159l30 224h1378l-63 -436h-223l30 212h-759l-91 -647h874l-35 -223h-873l-90 -661h799l29 211h224l-60 -435h-1416zM1221 2290q8 65 59 107.5t107 42.5q53 0 93 -42.5t32 -107.5q-11 -65 -60.5 -106.5t-103.5 -41.5q-57 0 -97.5 41.5t-29.5 106.5 zM752 2290q8 65 59 107.5t108 42.5q54 0 93 -42.5t31 -107.5q-11 -65 -61 -106.5t-103 -41.5q-57 0 -97.5 41.5t-29.5 106.5z" />
<glyph unicode="&#xcc;" horiz-adv-x="880" d="M130 224h223l216 1531h-224l30 224h685l-32 -224h-225l-215 -1531h226l-32 -224h-683zM641 2495q40 -94 73.5 -187.5t73.5 -187.5h-167q-56 94 -106 188.5t-105 186.5h231z" />
<glyph unicode="&#xcd;" horiz-adv-x="880" d="M130 224h223l216 1531h-224l30 224h685l-32 -224h-225l-215 -1531h226l-32 -224h-683zM656 2120q76 94 152.5 188.5t152.5 186.5h237l-375 -375h-167z" />
<glyph unicode="&#xce;" horiz-adv-x="890" d="M130 224h223l216 1531h-224l30 224h685l-32 -224h-225l-215 -1531h226l-32 -224h-683zM817 2632q68 -127 134 -256t134 -256h-167l-144 203q-48 -51 -100.5 -101.5t-99.5 -101.5h-167q102 127 205 256t205 256z" />
<glyph unicode="&#xcf;" horiz-adv-x="890" d="M130 224h223l216 1531h-224l30 224h685l-32 -224h-225l-215 -1531h226l-32 -224h-683zM852 2290q8 65 59 107.5t107 42.5q53 0 93 -42.5t32 -107.5q-11 -65 -60.5 -106.5t-103.5 -41.5q-57 0 -97.5 41.5t-29.5 106.5zM383 2290q8 65 59 107.5t108 42.5q54 0 93 -42.5 t31 -107.5q-11 -65 -61 -106.5t-103 -41.5q-57 0 -97.5 41.5t-29.5 106.5z" />
<glyph unicode="&#xd0;" horiz-adv-x="1785" d="M277 1103h108l92 652h-132l30 224h594q203 0 374.5 -69.5t289 -199.5t171 -312t22.5 -411q-25 -167 -107 -342.5t-232 -318t-370.5 -234.5t-520.5 -92h-497l31 224h132l91 650h-107zM712 1755l-92 -652h510l-30 -229h-512l-91 -650h199q166 0 317.5 55t271.5 153.5 t200.5 240t105.5 316.5q25 176 -15.5 317.5t-134 241.5t-229.5 153.5t-303 53.5h-197z" />
<glyph unicode="&#xd1;" horiz-adv-x="2308" d="M141 224h247l214 1531h-246l32 224h327l1159 -1479l43 -74l5 92l173 1237h-204l31 224h683l-30 -224h-246l-258 -1846l-1232 1539l-41 73l-7 -91l-169 -1206h203l-31 -224h-684zM1387 2184q-37 46 -66 59.5t-69 13.5t-94 -23t-76 -106q-32 2 -63 3.5t-61 4.5 q11 57 42 103.5t72.5 79t87.5 49t89 16.5q65 0 114.5 -24.5t88.5 -67.5q37 -46 68 -59.5t71 -13.5q19 0 43.5 5.5t48.5 19t44.5 39.5t29.5 66l128 -9q-11 -56 -42.5 -103t-72.5 -78t-88 -47.5t-88 -16.5q-65 0 -116 24.5t-91 64.5z" />
<glyph unicode="&#xd2;" horiz-adv-x="2220" d="M240 987q28 207 132.5 392t261.5 323t352 218.5t405 80.5q207 0 380 -80.5t292 -218.5t174 -324t26 -391q-32 -210 -137.5 -393.5t-262 -321t-353 -216t-402.5 -78.5q-210 0 -382.5 78.5t-291 216t-172.5 321t-22 393.5zM475 987q-22 -165 18.5 -307.5t131 -248 t223.5 -168.5t293 -63q162 0 311.5 63t269.5 168.5t202.5 248t104.5 307.5q22 164 -19 306t-132.5 249.5t-222.5 170t-293 62.5q-161 0 -311 -62.5t-271.5 -170t-202 -249.5t-102.5 -306zM1291 2495q40 -94 73.5 -187.5t73.5 -187.5h-167q-56 94 -106 188.5t-105 186.5h231z " />
<glyph unicode="&#xd3;" horiz-adv-x="2220" d="M240 987q28 207 132.5 392t261.5 323t352 218.5t405 80.5q207 0 380 -80.5t292 -218.5t174 -324t26 -391q-32 -210 -137.5 -393.5t-262 -321t-353 -216t-402.5 -78.5q-210 0 -382.5 78.5t-291 216t-172.5 321t-22 393.5zM475 987q-22 -165 18.5 -307.5t131 -248 t223.5 -168.5t293 -63q162 0 311.5 63t269.5 168.5t202.5 248t104.5 307.5q22 164 -19 306t-132.5 249.5t-222.5 170t-293 62.5q-161 0 -311 -62.5t-271.5 -170t-202 -249.5t-102.5 -306zM1351 2120q76 94 152.5 188.5t152.5 186.5h237l-375 -375h-167z" />
<glyph unicode="&#xd4;" horiz-adv-x="2220" d="M240 987q28 207 132.5 392t261.5 323t352 218.5t405 80.5q207 0 380 -80.5t292 -218.5t174 -324t26 -391q-32 -210 -137.5 -393.5t-262 -321t-353 -216t-402.5 -78.5q-210 0 -382.5 78.5t-291 216t-172.5 321t-22 393.5zM475 987q-22 -165 18.5 -307.5t131 -248 t223.5 -168.5t293 -63q162 0 311.5 63t269.5 168.5t202.5 248t104.5 307.5q22 164 -19 306t-132.5 249.5t-222.5 170t-293 62.5q-161 0 -311 -62.5t-271.5 -170t-202 -249.5t-102.5 -306zM1483 2632q68 -127 134 -256t134 -256h-167l-144 203q-48 -51 -100.5 -101.5 t-99.5 -101.5h-167q102 127 205 256t205 256z" />
<glyph unicode="&#xd5;" horiz-adv-x="2220" d="M240 987q28 207 132.5 392t261.5 323t352 218.5t405 80.5q207 0 380 -80.5t292 -218.5t174 -324t26 -391q-32 -210 -137.5 -393.5t-262 -321t-353 -216t-402.5 -78.5q-210 0 -382.5 78.5t-291 216t-172.5 321t-22 393.5zM475 987q-22 -165 18.5 -307.5t131 -248 t223.5 -168.5t293 -63q162 0 311.5 63t269.5 168.5t202.5 248t104.5 307.5q22 164 -19 306t-132.5 249.5t-222.5 170t-293 62.5q-161 0 -311 -62.5t-271.5 -170t-202 -249.5t-102.5 -306zM1408 2284q-37 46 -66 59.5t-69 13.5t-94 -23t-76 -106q-32 2 -63 3.5t-61 4.5 q11 57 42 103.5t72.5 79t87.5 49t89 16.5q65 0 114.5 -24.5t88.5 -67.5q37 -46 68 -59.5t71 -13.5q19 0 43.5 5.5t48.5 19t44.5 39.5t29.5 66l128 -9q-11 -56 -42.5 -103t-72.5 -78t-88 -47.5t-88 -16.5q-65 0 -116 24.5t-91 64.5z" />
<glyph unicode="&#xd6;" horiz-adv-x="2220" d="M240 987q28 207 132.5 392t261.5 323t352 218.5t405 80.5q207 0 380 -80.5t292 -218.5t174 -324t26 -391q-32 -210 -137.5 -393.5t-262 -321t-353 -216t-402.5 -78.5q-210 0 -382.5 78.5t-291 216t-172.5 321t-22 393.5zM475 987q-22 -165 18.5 -307.5t131 -248 t223.5 -168.5t293 -63q162 0 311.5 63t269.5 168.5t202.5 248t104.5 307.5q22 164 -19 306t-132.5 249.5t-222.5 170t-293 62.5q-161 0 -311 -62.5t-271.5 -170t-202 -249.5t-102.5 -306zM1504 2290q8 65 59 107.5t107 42.5q53 0 93 -42.5t32 -107.5q-11 -65 -60.5 -106.5 t-103.5 -41.5q-57 0 -97.5 41.5t-29.5 106.5zM1035 2290q8 65 59 107.5t108 42.5q54 0 93 -42.5t31 -107.5q-11 -65 -61 -106.5t-103 -41.5q-57 0 -97.5 41.5t-29.5 106.5z" />
<glyph unicode="&#xd7;" horiz-adv-x="1413" d="M1028 0q-62 70 -121.5 138.5t-121.5 138.5q-76 -67 -155 -137t-155 -137q-38 40 -73 80.5t-68 80.5q79 71 157 138.5t156 137.5l-240 280l192 167l240 -280q79 71 157 139t158 139q37 -40 70 -82.5t68 -82.5q-76 -67 -155.5 -136t-155.5 -137q60 -70 117.5 -140 t120.5 -140z" />
<glyph unicode="&#xd8;" horiz-adv-x="2220" d="M477 987q-22 -151 10.5 -282t108.5 -236l1176 1176q-84 62 -187.5 97t-222.5 35q-161 0 -311 -62t-270 -171t-200.5 -252.5t-103.5 -304.5zM1141 200q162 0 311.5 63t271 168.5t203.5 249.5t106 306q22 146 -12 278t-108 235q-297 -297 -586 -587.5t-586 -586.5 q81 -60 181.5 -93t218.5 -33zM243 987q27 209 133.5 394t262 322t350.5 217.5t405 80.5q161 0 300.5 -48.5t249.5 -132.5l213 213l143 -145q-53 -54 -105.5 -105t-106.5 -104q108 -135 157.5 -313.5t20.5 -378.5q-32 -210 -136 -393.5t-260.5 -321t-353.5 -216t-405 -78.5 q-162 0 -299 45t-246 127q-48 -48 -98 -99t-98 -99q-37 37 -74 72t-70 73q49 48 96.5 97t95.5 97q-108 135 -155.5 314t-19.5 382z" />
<glyph unicode="&#xd9;" horiz-adv-x="2058" d="M378 1979h685l-31 -224h-232l-156 -1108q-31 -218 86 -332.5t330 -114.5q105 0 196.5 29.5t163.5 86.5t119 140.5t63 190.5l156 1108h-232l31 224h684l-30 -224h-218l-159 -1116q-22 -162 -94.5 -286t-179.5 -207.5t-243 -125.5t-289 -42t-276.5 42t-208.5 125.5 t-121.5 207.5t-14.5 286l159 1116h-218zM1263 2495q40 -94 73.5 -187.5t73.5 -187.5h-167q-56 94 -106 188.5t-105 186.5h231z" />
<glyph unicode="&#xda;" horiz-adv-x="2058" d="M378 1979h685l-31 -224h-232l-156 -1108q-31 -218 86 -332.5t330 -114.5q105 0 196.5 29.5t163.5 86.5t119 140.5t63 190.5l156 1108h-232l31 224h684l-30 -224h-218l-159 -1116q-22 -162 -94.5 -286t-179.5 -207.5t-243 -125.5t-289 -42t-276.5 42t-208.5 125.5 t-121.5 207.5t-14.5 286l159 1116h-218zM1238 2120q76 94 152.5 188.5t152.5 186.5h237l-375 -375h-167z" />
<glyph unicode="&#xdb;" horiz-adv-x="2058" d="M378 1979h685l-31 -224h-232l-156 -1108q-31 -218 86 -332.5t330 -114.5q105 0 196.5 29.5t163.5 86.5t119 140.5t63 190.5l156 1108h-232l31 224h684l-30 -224h-218l-159 -1116q-22 -162 -94.5 -286t-179.5 -207.5t-243 -125.5t-289 -42t-276.5 42t-208.5 125.5 t-121.5 207.5t-14.5 286l159 1116h-218zM1408 2635q68 -127 134 -256t134 -256h-167l-144 203q-48 -51 -100.5 -101.5t-99.5 -101.5h-167q102 127 205 256t205 256z" />
<glyph unicode="&#xdc;" horiz-adv-x="2058" d="M378 1979h685l-31 -224h-232l-156 -1108q-31 -218 86 -332.5t330 -114.5q105 0 196.5 29.5t163.5 86.5t119 140.5t63 190.5l156 1108h-232l31 224h684l-30 -224h-218l-159 -1116q-22 -162 -94.5 -286t-179.5 -207.5t-243 -125.5t-289 -42t-276.5 42t-208.5 125.5 t-121.5 207.5t-14.5 286l159 1116h-218zM1445 2290q8 65 59 107.5t107 42.5q53 0 93 -42.5t32 -107.5q-11 -65 -60.5 -106.5t-103.5 -41.5q-57 0 -97.5 41.5t-29.5 106.5zM976 2290q8 65 59 107.5t108 42.5q54 0 93 -42.5t31 -107.5q-11 -65 -61 -106.5t-103 -41.5 q-57 0 -97.5 41.5t-29.5 106.5z" />
<glyph unicode="&#xdd;" horiz-adv-x="2228" d="M814 224h189l73 539q-113 249 -224 496.5t-221 495.5h-286l30 224h685l-32 -224h-112q79 -172 157 -344.5t157 -345.5l19 -87h3l45 87l507 690h-111l31 224h684l-32 -224h-284q-183 -248 -363.5 -497t-363.5 -498l-73 -536h205l-30 -224h-685zM1340 2120 q76 94 152.5 188.5t152.5 186.5h237l-375 -375h-167z" />
<glyph unicode="&#xde;" horiz-adv-x="1534" d="M130 224h201l214 1531h-200l30 224h628l-30 -224h-193l-33 -243h231q97 0 209.5 -29.5t204.5 -95t145.5 -167t34.5 -244.5q-37 -257 -211 -409t-463 -152h-307l-25 -191h248l-32 -224h-683zM622 642h246q124 0 210.5 32.5t141.5 80.5t82 107.5t35 113.5q9 62 -15.5 120 t-74 101.5t-122.5 69t-162 25.5h-248z" />
<glyph unicode="&#xdf;" horiz-adv-x="1578" d="M132 224h170l102 720h-169l31 229h169l2 22q23 153 89.5 276t160 209t208 131.5t230.5 45.5q94 0 171 -35.5t129.5 -97.5t76.5 -144.5t13 -174.5q-14 -91 -58 -168.5t-109 -133.5q119 -82 179.5 -216.5t38.5 -298.5q-16 -127 -81.5 -239t-161.5 -195.5t-215 -131 t-246 -47.5q-64 0 -125.5 12.5t-111.5 37.5l124 210q68 -32 144 -32q79 0 152.5 31.5t134.5 83.5t100 121.5t52 148.5q11 79 -12 148.5t-68.5 120t-111.5 80t-145 29.5q5 28 5 55.5t6 57.5l17 116q96 0 170 55t88 155q11 87 -41.5 156.5t-142.5 66.5q-161 -5 -278.5 -122.5 t-146.5 -324.5l-166 -1181h-404z" />
<glyph unicode="&#xe0;" d="M175 529q17 110 75 211.5t145.5 178t198 121.5t228.5 45q76 0 137 -22t106.5 -49t69.5 -52.5t24 -34.5q6 32 14 65t14 68h194l-114 -836h214l-31 -224h-422l10 57q3 13 3 27.5t2 28.5q-5 -8 -33.5 -31t-76.5 -47t-116 -42t-150 -18q-119 0 -217.5 43.5t-163.5 120 t-96 176.5t-15 214zM413 531q-20 -138 59 -233t226 -95q73 0 136.5 25.5t114.5 69.5t83.5 105t41.5 128q19 141 -59.5 233.5t-226.5 92.5q-73 0 -136.5 -24t-114.5 -68.5t-83.5 -103.5t-40.5 -130zM732 1729q40 -94 73.5 -187.5t73.5 -187.5h-167q-56 94 -106 188.5 t-105 186.5h231z" />
<glyph unicode="&#xe1;" d="M175 529q17 110 75 211.5t145.5 178t198 121.5t228.5 45q76 0 137 -22t106.5 -49t69.5 -52.5t24 -34.5q6 32 14 65t14 68h194l-114 -836h214l-31 -224h-422l10 57q3 13 3 27.5t2 28.5q-5 -8 -33.5 -31t-76.5 -47t-116 -42t-150 -18q-119 0 -217.5 43.5t-163.5 120 t-96 176.5t-15 214zM413 531q-20 -138 59 -233t226 -95q73 0 136.5 25.5t114.5 69.5t83.5 105t41.5 128q19 141 -59.5 233.5t-226.5 92.5q-73 0 -136.5 -24t-114.5 -68.5t-83.5 -103.5t-40.5 -130zM798 1354q76 94 152.5 188.5t152.5 186.5h237l-375 -375h-167z" />
<glyph unicode="&#xe2;" d="M175 529q17 110 75 211.5t145.5 178t198 121.5t228.5 45q76 0 137 -22t106.5 -49t69.5 -52.5t24 -34.5q6 32 14 65t14 68h194l-114 -836h214l-31 -224h-422l10 57q3 13 3 27.5t2 28.5q-5 -8 -33.5 -31t-76.5 -47t-116 -42t-150 -18q-119 0 -217.5 43.5t-163.5 120 t-96 176.5t-15 214zM413 531q-20 -138 59 -233t226 -95q73 0 136.5 25.5t114.5 69.5t83.5 105t41.5 128q19 141 -59.5 233.5t-226.5 92.5q-73 0 -136.5 -24t-114.5 -68.5t-83.5 -103.5t-40.5 -130zM978 1866q68 -127 134 -256t134 -256h-167l-144 203q-48 -51 -100.5 -101.5 t-99.5 -101.5h-167q102 127 205 256t205 256z" />
<glyph unicode="&#xe3;" d="M175 529q17 110 75 211.5t145.5 178t198 121.5t228.5 45q76 0 137 -22t106.5 -49t69.5 -52.5t24 -34.5q6 32 14 65t14 68h194l-114 -836h214l-31 -224h-422l10 57q3 13 3 27.5t2 28.5q-5 -8 -33.5 -31t-76.5 -47t-116 -42t-150 -18q-119 0 -217.5 43.5t-163.5 120 t-96 176.5t-15 214zM413 531q-20 -138 59 -233t226 -95q73 0 136.5 25.5t114.5 69.5t83.5 105t41.5 128q19 141 -59.5 233.5t-226.5 92.5q-73 0 -136.5 -24t-114.5 -68.5t-83.5 -103.5t-40.5 -130zM817 1359q-37 46 -66 59.5t-69 13.5t-94 -23t-76 -106q-32 2 -63 3.5 t-61 4.5q11 57 42 103.5t72.5 79t87.5 49t89 16.5q65 0 114.5 -24.5t88.5 -67.5q37 -46 68 -59.5t71 -13.5q19 0 43.5 5.5t48.5 19t44.5 39.5t29.5 66l128 -9q-11 -56 -42.5 -103t-72.5 -78t-88 -47.5t-88 -16.5q-65 0 -116 24.5t-91 64.5z" />
<glyph unicode="&#xe4;" d="M175 529q17 110 75 211.5t145.5 178t198 121.5t228.5 45q76 0 137 -22t106.5 -49t69.5 -52.5t24 -34.5q6 32 14 65t14 68h194l-114 -836h214l-31 -224h-422l10 57q3 13 3 27.5t2 28.5q-5 -8 -33.5 -31t-76.5 -47t-116 -42t-150 -18q-119 0 -217.5 43.5t-163.5 120 t-96 176.5t-15 214zM413 531q-20 -138 59 -233t226 -95q73 0 136.5 25.5t114.5 69.5t83.5 105t41.5 128q19 141 -59.5 233.5t-226.5 92.5q-73 0 -136.5 -24t-114.5 -68.5t-83.5 -103.5t-40.5 -130zM1013 1470q8 65 59 107.5t107 42.5q53 0 93 -42.5t32 -107.5 q-11 -65 -60.5 -106.5t-103.5 -41.5q-57 0 -97.5 41.5t-29.5 106.5zM544 1470q8 65 59 107.5t108 42.5q54 0 93 -42.5t31 -107.5q-11 -65 -61 -106.5t-103 -41.5q-57 0 -97.5 41.5t-29.5 106.5z" />
<glyph unicode="&#xe5;" d="M791 1524q-6 -40 17 -66t63 -26t69 26t36 66q5 40 -17.5 66t-62.5 26t-70 -26t-35 -66zM639 1526q5 51 32 94.5t65 77.5t85 54t98 20t92 -20t70.5 -54t42 -77.5t6.5 -94.5q-8 -51 -33.5 -94.5t-65 -78t-86.5 -53.5t-98 -19t-91.5 19t-69 53.5t-42 78t-5.5 94.5zM175 529 q17 110 75 211.5t145.5 178t198 121.5t228.5 45q76 0 137 -22t106.5 -49t69.5 -52.5t24 -34.5q6 32 14 65t14 68h194l-114 -836h214l-31 -224h-422l10 57q3 13 3 27.5t2 28.5q-5 -8 -33.5 -31t-76.5 -47t-116 -42t-150 -18q-119 0 -217.5 43.5t-163.5 120t-96 176.5t-15 214 zM413 531q-20 -138 59 -233t226 -95q73 0 136.5 25.5t114.5 69.5t83.5 105t41.5 128q19 141 -59.5 233.5t-226.5 92.5q-73 0 -136.5 -24t-114.5 -68.5t-83.5 -103.5t-40.5 -130z" />
<glyph unicode="&#xe6;" horiz-adv-x="1731" d="M1094 684l-9 -62q91 32 178.5 62.5t177.5 62.5q-32 48 -78 77t-106 29q-81 0 -152 -31q0 -31 -2.5 -64.5t-8.5 -73.5zM814 378h-158q-41 0 -87 -2.5t-87.5 -11t-69 -23.5t-31.5 -42q-6 -31 11.5 -49t45.5 -29t65 -16t77 -5q31 0 67.5 1.5t69 10.5t57 29.5t29.5 63.5z M375 774q-24 40 -50 75.5t-50 75.5q37 31 88.5 60t111 50.5t121.5 34t116 12.5q221 0 308 -62q132 62 272 62q87 0 162 -35t130 -97.5t90.5 -148.5t46.5 -188l-669 -238l-3 -11q-6 -37 -15 -69.5t-20 -62.5q32 -17 71.5 -24.5t81.5 -7.5q65 0 123 24t104 67q32 -43 61 -85 t60 -85q-81 -70 -176.5 -109.5t-202.5 -39.5q-151 0 -268 71q-113 -71 -317 -71q-103 0 -184 15.5t-135 54.5t-78 105t-10 163q11 87 55 148.5t106 97t138.5 51t152.5 15.5h251l10 68q5 43 2.5 72t-21 50.5t-58 31t-105.5 9.5q-73 0 -162 -23.5t-138 -55.5z" />
<glyph unicode="&#xe7;" horiz-adv-x="1124" d="M890 275l116 -178q-81 -57 -176.5 -89.5t-196.5 -32.5q-5 -43 2 -65.5t22 -36.5t36.5 -23t37.5 -22q54 -46 70 -102.5t5 -127.5q-14 -96 -74 -176t-158 -112q-51 -17 -108 -17q-96 0 -169 52.5t-97 160.5l142 68q9 -46 41 -75.5t89 -29.5q68 0 110.5 45.5t53.5 112.5 q8 57 -18.5 89.5t-59 58t-59.5 53.5t-22 75l14 91q-87 23 -156 74t-116 121t-65.5 158t-3.5 184q17 113 75 214.5t144 177t194.5 119t227.5 43.5q105 0 191 -32.5t151 -89.5l-46 -327h-211l25 189q-67 32 -141 32q-73 0 -136.5 -24t-114.5 -68.5t-83.5 -103.5t-40.5 -130 q-11 -67 4 -128t53 -105t94.5 -69.5t130.5 -25.5q121 1 223 72z" />
<glyph unicode="&#xe8;" horiz-adv-x="1270" d="M785 857q-143 0 -245.5 -86.5t-126.5 -217.5q140 49 279 98.5t277 97.5q-32 49 -78 78.5t-106 29.5zM1249 615q-200 -70 -401 -140.5t-404 -140.5q35 -59 99 -95t153 -36q64 0 122 24t104 67q32 -43 61 -85t60 -85q-81 -70 -176.5 -109.5t-202.5 -39.5q-119 0 -215 43.5 t-162 120t-97 176.5t-15 216q17 113 75 214.5t145.5 177t196.5 119t228 43.5q87 0 162 -35.5t130 -97.5t90.5 -148t46.5 -189zM697 1729q40 -94 73.5 -187.5t73.5 -187.5h-167q-56 94 -106 188.5t-105 186.5h231z" />
<glyph unicode="&#xe9;" horiz-adv-x="1270" d="M785 857q-143 0 -245.5 -86.5t-126.5 -217.5q140 49 279 98.5t277 97.5q-32 49 -78 78.5t-106 29.5zM1249 615q-200 -70 -401 -140.5t-404 -140.5q35 -59 99 -95t153 -36q64 0 122 24t104 67q32 -43 61 -85t60 -85q-81 -70 -176.5 -109.5t-202.5 -39.5q-119 0 -215 43.5 t-162 120t-97 176.5t-15 216q17 113 75 214.5t145.5 177t196.5 119t228 43.5q87 0 162 -35.5t130 -97.5t90.5 -148t46.5 -189zM738 1354q76 94 152.5 188.5t152.5 186.5h237l-375 -375h-167z" />
<glyph unicode="&#xea;" horiz-adv-x="1270" d="M785 857q-143 0 -245.5 -86.5t-126.5 -217.5q140 49 279 98.5t277 97.5q-32 49 -78 78.5t-106 29.5zM1249 615q-200 -70 -401 -140.5t-404 -140.5q35 -59 99 -95t153 -36q64 0 122 24t104 67q32 -43 61 -85t60 -85q-81 -70 -176.5 -109.5t-202.5 -39.5q-119 0 -215 43.5 t-162 120t-97 176.5t-15 216q17 113 75 214.5t145.5 177t196.5 119t228 43.5q87 0 162 -35.5t130 -97.5t90.5 -148t46.5 -189zM925 1866q68 -127 134 -256t134 -256h-167l-144 203q-48 -51 -100.5 -101.5t-99.5 -101.5h-167q102 127 205 256t205 256z" />
<glyph unicode="&#xeb;" horiz-adv-x="1270" d="M785 857q-143 0 -245.5 -86.5t-126.5 -217.5q140 49 279 98.5t277 97.5q-32 49 -78 78.5t-106 29.5zM1249 615q-200 -70 -401 -140.5t-404 -140.5q35 -59 99 -95t153 -36q64 0 122 24t104 67q32 -43 61 -85t60 -85q-81 -70 -176.5 -109.5t-202.5 -39.5q-119 0 -215 43.5 t-162 120t-97 176.5t-15 216q17 113 75 214.5t145.5 177t196.5 119t228 43.5q87 0 162 -35.5t130 -97.5t90.5 -148t46.5 -189zM916 1470q8 65 59 107.5t107 42.5q53 0 93 -42.5t32 -107.5q-11 -65 -60.5 -106.5t-103.5 -41.5q-57 0 -97.5 41.5t-29.5 106.5zM447 1470 q8 65 59 107.5t108 42.5q54 0 93 -42.5t31 -107.5q-11 -65 -61 -106.5t-103 -41.5q-57 0 -97.5 41.5t-29.5 106.5z" />
<glyph unicode="&#xec;" horiz-adv-x="825" d="M130 224h198l85 612h-198l31 224h433l-116 -836h195l-32 -224h-627zM512 1729q40 -94 74 -187.5t72 -187.5h-167q-56 94 -105 188.5t-106 186.5h232z" />
<glyph unicode="&#xed;" horiz-adv-x="825" d="M130 224h198l85 612h-198l31 224h433l-116 -836h195l-32 -224h-627zM529 1354q75 94 152 188.5t153 186.5h237l-375 -375h-167z" />
<glyph unicode="&#xee;" horiz-adv-x="825" d="M130 224h198l85 612h-198l31 224h433l-116 -836h195l-32 -224h-627zM639 1866q68 -127 134 -256t134 -256h-166l-145 203q-48 -51 -100 -101.5t-100 -101.5h-167q102 127 205 256t205 256z" />
<glyph unicode="&#xef;" horiz-adv-x="825" d="M130 224h198l85 612h-198l31 224h433l-116 -836h195l-32 -224h-627zM704 1470q8 65 59 107.5t108 42.5q54 0 93 -42.5t31 -107.5q-11 -65 -60.5 -106.5t-103.5 -41.5q-57 0 -97.5 41.5t-29.5 106.5zM235 1470q8 65 59 107.5t108 42.5q53 0 92.5 -42.5t31.5 -107.5 q-11 -65 -61 -106.5t-103 -41.5q-57 0 -97.5 41.5t-29.5 106.5z" />
<glyph unicode="&#xf0;" horiz-adv-x="1330" d="M413 531q-9 -70 7.5 -129.5t57 -102t98 -66t131.5 -20.5q73 2 136.5 29t113 72t80.5 105.5t39 128.5q11 141 -69 230.5t-225 86.5q-153 -5 -254.5 -99t-114.5 -235zM534 1500q48 43 91.5 85.5t92.5 84.5q-100 141 -224 261q48 40 96.5 78t96.5 76q60 -51 115 -109.5 t107 -124.5q38 37 73 70.5t75 71.5q35 -38 71.5 -73t72.5 -72q-46 -43 -89.5 -83.5t-88.5 -82.5q70 -116 133 -254.5t103.5 -285.5t56.5 -296.5t-5 -289.5q-14 -116 -69 -217.5t-140 -179.5t-192 -125.5t-226 -50.5q-118 -2 -216 38.5t-167 114.5t-103 172.5t-23 214.5 q11 113 67.5 216t143 179.5t194 122.5t226.5 51q94 2 178 -24q-22 113 -62 219.5t-94 204.5q-37 -37 -75 -70.5t-74 -70.5q-37 40 -72.5 74.5t-72.5 74.5z" />
<glyph unicode="&#xf1;" horiz-adv-x="1638" d="M944 224h218l59 437q6 76 -35.5 131t-147.5 61q-73 0 -144.5 -25t-128 -70.5t-95.5 -107.5t-50 -135l-40 -291h178l-32 -224h-627l31 224h215l84 612h-186l32 224h392l-3 -25q-6 -68 -7 -123t-7 -124q76 135 212 216t289 81q167 0 251 -88t70 -228l-75 -545h175l-32 -224 h-626zM1023 1342q-37 46 -66 59.5t-69 13.5t-94 -23t-76 -106q-32 2 -63 3.5t-61 4.5q11 57 42 103.5t72.5 79t87.5 49t89 16.5q65 0 114.5 -24.5t88.5 -67.5q37 -46 68 -59.5t71 -13.5q19 0 43.5 5.5t48.5 19t44.5 39.5t29.5 66l128 -9q-11 -56 -42.5 -103t-72.5 -78 t-88 -47.5t-88 -16.5q-65 0 -116 24.5t-91 64.5z" />
<glyph unicode="&#xf2;" horiz-adv-x="1330" d="M175 531q17 113 75 214.5t145.5 177t196.5 119t228 43.5q118 0 215.5 -43.5t164.5 -119t96.5 -177t11.5 -214.5q-16 -116 -74 -216t-144.5 -176.5t-197 -120t-228.5 -43.5q-119 0 -215 43.5t-162 120t-97 176.5t-15 216zM410 529q-8 -68 8.5 -127.5t55 -103.5t93.5 -69.5 t123 -25.5t131.5 25.5t114.5 69.5t84.5 103.5t42.5 127.5q8 67 -8.5 126.5t-55.5 105t-95.5 71t-123.5 25.5q-68 0 -130 -25.5t-113 -71t-85 -105t-42 -126.5zM746 1729q40 -94 73.5 -187.5t73.5 -187.5h-167q-56 94 -106 188.5t-105 186.5h231z" />
<glyph unicode="&#xf3;" horiz-adv-x="1330" d="M175 531q17 113 75 214.5t145.5 177t196.5 119t228 43.5q118 0 215.5 -43.5t164.5 -119t96.5 -177t11.5 -214.5q-16 -116 -74 -216t-144.5 -176.5t-197 -120t-228.5 -43.5q-119 0 -215 43.5t-162 120t-97 176.5t-15 216zM410 529q-8 -68 8.5 -127.5t55 -103.5t93.5 -69.5 t123 -25.5t131.5 25.5t114.5 69.5t84.5 103.5t42.5 127.5q8 67 -8.5 126.5t-55.5 105t-95.5 71t-123.5 25.5q-68 0 -130 -25.5t-113 -71t-85 -105t-42 -126.5zM849 1354q76 94 152.5 188.5t152.5 186.5h237l-375 -375h-167z" />
<glyph unicode="&#xf4;" horiz-adv-x="1330" d="M175 531q17 113 75 214.5t145.5 177t196.5 119t228 43.5q118 0 215.5 -43.5t164.5 -119t96.5 -177t11.5 -214.5q-16 -116 -74 -216t-144.5 -176.5t-197 -120t-228.5 -43.5q-119 0 -215 43.5t-162 120t-97 176.5t-15 216zM410 529q-8 -68 8.5 -127.5t55 -103.5t93.5 -69.5 t123 -25.5t131.5 25.5t114.5 69.5t84.5 103.5t42.5 127.5q8 67 -8.5 126.5t-55.5 105t-95.5 71t-123.5 25.5q-68 0 -130 -25.5t-113 -71t-85 -105t-42 -126.5zM938 1866q68 -127 134 -256t134 -256h-167l-144 203q-48 -51 -100.5 -101.5t-99.5 -101.5h-167q102 127 205 256 t205 256z" />
<glyph unicode="&#xf5;" horiz-adv-x="1330" d="M175 531q17 113 75 214.5t145.5 177t196.5 119t228 43.5q118 0 215.5 -43.5t164.5 -119t96.5 -177t11.5 -214.5q-16 -116 -74 -216t-144.5 -176.5t-197 -120t-228.5 -43.5q-119 0 -215 43.5t-162 120t-97 176.5t-15 216zM410 529q-8 -68 8.5 -127.5t55 -103.5t93.5 -69.5 t123 -25.5t131.5 25.5t114.5 69.5t84.5 103.5t42.5 127.5q8 67 -8.5 126.5t-55.5 105t-95.5 71t-123.5 25.5q-68 0 -130 -25.5t-113 -71t-85 -105t-42 -126.5zM814 1359q-37 46 -66 59.5t-69 13.5t-94 -23t-76 -106q-32 2 -63 3.5t-61 4.5q11 57 42 103.5t72.5 79t87.5 49 t89 16.5q65 0 114.5 -24.5t88.5 -67.5q37 -46 68 -59.5t71 -13.5q19 0 43.5 5.5t48.5 19t44.5 39.5t29.5 66l128 -9q-11 -56 -42.5 -103t-72.5 -78t-88 -47.5t-88 -16.5q-65 0 -116 24.5t-91 64.5z" />
<glyph unicode="&#xf6;" horiz-adv-x="1330" d="M175 531q17 113 75 214.5t145.5 177t196.5 119t228 43.5q118 0 215.5 -43.5t164.5 -119t96.5 -177t11.5 -214.5q-16 -116 -74 -216t-144.5 -176.5t-197 -120t-228.5 -43.5q-119 0 -215 43.5t-162 120t-97 176.5t-15 216zM410 529q-8 -68 8.5 -127.5t55 -103.5t93.5 -69.5 t123 -25.5t131.5 25.5t114.5 69.5t84.5 103.5t42.5 127.5q8 67 -8.5 126.5t-55.5 105t-95.5 71t-123.5 25.5q-68 0 -130 -25.5t-113 -71t-85 -105t-42 -126.5zM938 1470q8 65 59 107.5t107 42.5q53 0 93 -42.5t32 -107.5q-11 -65 -60.5 -106.5t-103.5 -41.5 q-57 0 -97.5 41.5t-29.5 106.5zM469 1470q8 65 59 107.5t108 42.5q54 0 93 -42.5t31 -107.5q-11 -65 -61 -106.5t-103 -41.5q-57 0 -97.5 41.5t-29.5 106.5z" />
<glyph unicode="&#xf7;" horiz-adv-x="1415" d="M1210 582h-1018l32 229h1017zM610 1054q8 65 59 107t108 42q54 0 93 -42t31 -107t-59 -106t-104 -41q-56 0 -96 41t-32 106zM512 348q8 65 59 107t108 42q54 0 93 -42t31 -107t-59 -106.5t-105 -41.5q-57 0 -96 41.5t-31 106.5z" />
<glyph unicode="&#xf8;" horiz-adv-x="1330" d="M418 531q-16 -99 22 -178l482 481q-62 22 -128 23q-74 0 -137.5 -24t-114.5 -68.5t-83.5 -103.5t-40.5 -130zM701 203q73 0 136.5 25.5t114.5 69.5t83.5 105t43.5 128q14 116 -36 200q-127 -124 -249 -245.5t-246 -245.5q69 -37 153 -37zM184 531q16 113 74 214.5 t144.5 177t195.5 119t227 43.5q159 0 272 -73q32 31 62.5 61t61.5 60q28 -28 55 -56t56 -57l-113 -113q59 -73 86 -170.5t12 -205.5q-17 -116 -75 -216t-145.5 -176.5t-198 -120t-229.5 -43.5q-87 0 -160.5 23.5t-135.5 66.5q-35 -35 -68 -70t-68 -68q-31 27 -59 53t-57 54 q35 38 70 71t71 70q-51 73 -71.5 163.5t-6.5 192.5z" />
<glyph unicode="&#xf9;" horiz-adv-x="1610" d="M248 1060h421l-89 -661q-6 -76 35 -131t148 -61q73 0 144 25t128 70.5t96 107.5t50 135l40 291h-186l30 224h421l-118 -863h175l-28 -197h-410l20 144l26 128q-76 -135 -212 -216t-289 -81q-167 0 -252 87.5t-70 228.5l76 545h-186zM811 1729q40 -94 73.5 -187.5 t73.5 -187.5h-167q-56 94 -106 188.5t-105 186.5h231z" />
<glyph unicode="&#xfa;" horiz-adv-x="1610" d="M248 1060h421l-89 -661q-6 -76 35 -131t148 -61q73 0 144 25t128 70.5t96 107.5t50 135l40 291h-186l30 224h421l-118 -863h175l-28 -197h-410l20 144l26 128q-76 -135 -212 -216t-289 -81q-167 0 -252 87.5t-70 228.5l76 545h-186zM874 1354q76 94 152.5 188.5 t152.5 186.5h237l-375 -375h-167z" />
<glyph unicode="&#xfb;" horiz-adv-x="1610" d="M248 1060h421l-89 -661q-6 -76 35 -131t148 -61q73 0 144 25t128 70.5t96 107.5t50 135l40 291h-186l30 224h421l-118 -863h175l-28 -197h-410l20 144l26 128q-76 -135 -212 -216t-289 -81q-167 0 -252 87.5t-70 228.5l76 545h-186zM995 1866q68 -127 134 -256t134 -256 h-167l-144 203q-48 -51 -100.5 -101.5t-99.5 -101.5h-167q102 127 205 256t205 256z" />
<glyph unicode="&#xfc;" horiz-adv-x="1610" d="M248 1060h421l-89 -661q-6 -76 35 -131t148 -61q73 0 144 25t128 70.5t96 107.5t50 135l40 291h-186l30 224h421l-118 -863h175l-28 -197h-410l20 144l26 128q-76 -135 -212 -216t-289 -81q-167 0 -252 87.5t-70 228.5l76 545h-186zM1081 1470q8 65 59 107.5t107 42.5 q53 0 93 -42.5t32 -107.5q-11 -65 -60.5 -106.5t-103.5 -41.5q-57 0 -97.5 41.5t-29.5 106.5zM612 1470q8 65 59 107.5t108 42.5q54 0 93 -42.5t31 -107.5q-11 -65 -61 -106.5t-103 -41.5q-57 0 -97.5 41.5t-29.5 106.5z" />
<glyph unicode="&#xfd;" horiz-adv-x="1742" d="M291 -483h254q76 121 154 242.5t158 240.5q-76 213 -152.5 419t-153.5 417h-238l32 224h628l-32 -224h-150q62 -156 122 -312.5t90 -313.5q73 158 176.5 315t208.5 311h-175l30 224h648l-31 -224h-232q-212 -334 -424 -660t-424 -659h139l-32 -224h-628zM1108 1354 q76 94 152.5 188.5t152.5 186.5h237l-375 -375h-167z" />
<glyph unicode="&#xfe;" horiz-adv-x="1440" d="M-121 -483h215l335 2379h-216l30 224h628l-32 -224h-175l-124 -879q-11 -22 -21 -43.5t-19 -43.5q5 8 38 33.5t83.5 51.5t117.5 45t140 19q119 0 216 -43.5t164 -120t97 -176.5t14 -210q-16 -114 -74 -214t-145.5 -176.5t-198 -120t-229.5 -43.5q-79 0 -138 16.5t-102 38 t-66.5 44.5t-28.5 34q5 -14 8 -27t8 -27l-76 -537h232l-31 -224h-682zM1133 531q19 141 -59.5 233.5t-226.5 92.5q-73 0 -136.5 -24t-114.5 -68.5t-83.5 -103.5t-40.5 -130q-19 -138 58 -233t225 -95q73 0 138 25.5t114.5 69.5t83.5 105t42 128z" />
<glyph unicode="&#xff;" horiz-adv-x="1742" d="M291 -483h254q76 121 154 242.5t158 240.5q-76 213 -152.5 419t-153.5 417h-238l32 224h628l-32 -224h-150q62 -156 122 -312.5t90 -313.5q73 158 176.5 315t208.5 311h-175l30 224h648l-31 -224h-232q-212 -334 -424 -660t-424 -659h139l-32 -224h-628zM1248 1470 q8 65 59 107.5t107 42.5q53 0 93 -42.5t32 -107.5q-11 -65 -60.5 -106.5t-103.5 -41.5q-57 0 -97.5 41.5t-29.5 106.5zM779 1470q8 65 59 107.5t108 42.5q54 0 93 -42.5t31 -107.5q-11 -65 -61 -106.5t-103 -41.5q-57 0 -97.5 41.5t-29.5 106.5z" />
<glyph unicode="&#x2000;" horiz-adv-x="1317" />
<glyph unicode="&#x2001;" horiz-adv-x="2635" />
<glyph unicode="&#x2002;" horiz-adv-x="1317" />
<glyph unicode="&#x2003;" horiz-adv-x="2635" />
<glyph unicode="&#x2004;" horiz-adv-x="878" />
<glyph unicode="&#x2005;" horiz-adv-x="658" />
<glyph unicode="&#x2006;" horiz-adv-x="439" />
<glyph unicode="&#x2007;" horiz-adv-x="439" />
<glyph unicode="&#x2008;" horiz-adv-x="329" />
<glyph unicode="&#x2009;" horiz-adv-x="527" />
<glyph unicode="&#x200a;" horiz-adv-x="146" />
<glyph unicode="&#x2010;" horiz-adv-x="847" d="M132 415l32 229h520l-31 -229h-521z" />
<glyph unicode="&#x2011;" horiz-adv-x="847" d="M132 415l32 229h520l-31 -229h-521z" />
<glyph unicode="&#x2012;" horiz-adv-x="847" d="M132 415l32 229h520l-31 -229h-521z" />
<glyph unicode="&#x2013;" horiz-adv-x="1437" d="M283 491l30 229h852l-32 -229h-850z" />
<glyph unicode="&#x2014;" horiz-adv-x="1977" d="M280 491l30 229h1419l-30 -229h-1419z" />
<glyph unicode="&#x2018;" horiz-adv-x="462" d="M337 1667q-32 -17 -63 -34t-61 -34q-68 79 -88 185.5t19 224.5q37 -5 72 -9.5t72 -9.5q-34 -99 -18 -182.5t67 -140.5z" />
<glyph unicode="&#x2019;" horiz-adv-x="462" d="M215 1599q-27 17 -53.5 34t-53.5 34q67 57 105 140.5t33 182.5q37 5 75 9.5t75 9.5q6 -118 -42 -224.5t-139 -185.5z" />
<glyph unicode="&#x201a;" horiz-adv-x="412" d="M170 -150q-28 16 -53.5 33.5t-54.5 35.5q68 56 106.5 139t31.5 182q37 6 75 10t76 9q5 -118 -42.5 -224.5t-138.5 -184.5z" />
<glyph unicode="&#x201c;" horiz-adv-x="702" d="M631 1667q-32 -17 -63 -34l-62 -34q-67 79 -87 185.5t18 224.5q38 -5 73 -9.5t72 -9.5q-34 -99 -18 -182.5t67 -140.5zM337 1667q-32 -17 -63 -34t-61 -34q-68 79 -88 185.5t19 224.5q37 -5 72 -9.5t72 -9.5q-34 -99 -18 -182.5t67 -140.5z" />
<glyph unicode="&#x201d;" horiz-adv-x="699" d="M146 1599q-27 17 -52.5 34t-53.5 34q68 57 106 140.5t32 182.5q37 5 75 9.5t75 9.5q6 -118 -42.5 -224.5t-139.5 -185.5zM440 1599q-27 17 -52.5 34t-53.5 34q68 57 105.5 140.5t32.5 182.5q37 5 75 9.5t75 9.5q6 -118 -42.5 -224.5t-139.5 -185.5z" />
<glyph unicode="&#x201e;" horiz-adv-x="963" d="M170 -150q-28 16 -53.5 33.5t-54.5 35.5q68 56 106.5 139t31.5 182q37 6 75 10t76 9q5 -118 -42.5 -224.5t-138.5 -184.5zM464 -150q-28 16 -53.5 33.5t-54.5 35.5q68 56 106 139t32 182q37 6 75 10t75 9q6 -118 -41.5 -224.5t-138.5 -184.5z" />
<glyph unicode="&#x2022;" horiz-adv-x="1352" d="M367 847q11 76 48.5 141.5t92.5 115.5t124 78t142 28q76 0 137.5 -28t103.5 -78t62 -114.5t8 -142.5q-11 -76 -48 -140.5t-92 -113t-124 -75.5t-146 -27q-73 0 -135.5 27t-103 75.5t-60.5 113t-9 140.5z" />
<glyph unicode="&#x202f;" horiz-adv-x="527" />
<glyph unicode="&#x2039;" horiz-adv-x="1106" d="M814 218l-421 457q138 116 274 227.5t274 227.5l-37 -268q-57 -48 -107 -93.5t-104 -93.5q40 -48 79 -94.5t78 -94.5z" />
<glyph unicode="&#x203a;" horiz-adv-x="1106" d="M367 486q54 48 105 95t105 94q-40 48 -78 93.5t-78 93.5l37 268q105 -116 209 -227.5t209 -227.5l-545 -457z" />
<glyph unicode="&#x205f;" horiz-adv-x="658" />
<glyph unicode="&#x25fc;" horiz-adv-x="1059" d="M0 1060h1060v-1060h-1060v1060z" />
</font>
</defs>
</svg>
